<svg xmlns="http://www.w3.org/2000/svg" viewBox="0 0 194.16 233.28"><defs><style>.cls-1{fill:#fff;}</style></defs><g id="Layer_2" data-name="Layer 2"><g id="Layer_1-2" data-name="Layer 1"><path d="M99.9,6.26c3.51.19,7,.18,10.37.62a39.23,39.23,0,0,1,7.89,2,62.53,62.53,0,0,1,9.59,4c4.34,2.38,8.43,5.2,12.64,7.8,2.75,1.7,5.49,3.42,8.32,5a6.85,6.85,0,0,0,5.82.14,14.36,14.36,0,0,0,7.22-5.3,3.08,3.08,0,0,1,.24-.27c2.53-2.71,5-2.35,6.46,1.09A22,22,0,0,1,168.91,38a8.67,8.67,0,0,0,.17,6.6c1.14,2.8,1.95,5.73,2.9,8.61,1.79,5.41,2.24,11,2.4,16.66a82.71,82.71,0,0,1-.77,9.65c-.06.72-.15,1.44-.26,2.15-.39,2.47-.71,5-1.23,7.42-.69,3.23-1.51,6.44-2.34,9.64a36,36,0,0,1-1.28,3.61,2,2,0,0,0,.94,2.65,9.81,9.81,0,0,0,.91.57c4.29,2.3,6.66,5.93,8.35,10.48,2.73,7.32-1.49,17.94-8.38,22-2.87,1.72-5.9,3.06-9.39,2.65a2.7,2.7,0,0,0-2.94,1.75c-1.69,3.2-3.15,6.59-5.24,9.52A64.7,64.7,0,0,1,135,169.28c-2.51,1.61-5.23,2.9-7.89,4.27a3.68,3.68,0,0,0-2.26,3.39c0,2.6,0,5.2,0,7.79.06,2,1.18,3,3.13,3.49,3,.74,6,1.68,8.95,2.58,2.29.7,4.56,1.46,6.82,2.25,2.75.95,5.52,1.86,8.22,2.95,4.33,1.73,8.66,3.48,12.89,5.45a65.23,65.23,0,0,1,13.88,8.49,3.72,3.72,0,0,1,1.52,3.46c-.37,2.73-3.07,3.87-5.57,2.31-1.48-.94-2.86-2-4.32-3A73.05,73.05,0,0,0,157.6,206c-3.47-1.41-6.91-2.89-10.38-4.31-1.47-.6-3-1.14-4.46-1.71-1.1-.41-1.67,0-2.45,1.24a70.78,70.78,0,0,1-5.46,8.13,38.73,38.73,0,0,1-17.66,11.93c-3,1-6.13,1.79-9.21,2.61a9.49,9.49,0,0,1-2.38.25c-3.68,0-7.36,0-11-.07a20.55,20.55,0,0,1-3.75-.68c-.86-.18-1.69-.47-2.55-.65A42.47,42.47,0,0,1,70,213.61,40.64,40.64,0,0,1,60.53,202a1.78,1.78,0,0,0-2.3-1c-2.71.95-5.43,1.88-8.08,3s-5.55,2.44-8.3,3.71A69.78,69.78,0,0,0,29,215.28a4.26,4.26,0,0,1-3.56,1,3.23,3.23,0,0,1-1.81-5.46,33,33,0,0,1,5.86-4.54c3.55-2.14,7.21-4.12,10.93-5.94,3.12-1.52,6.38-2.73,9.59-4,2.1-.86,4.22-1.68,6.35-2.48,1.64-.62,3.29-1.22,5-1.74,2.51-.78,5-1.49,7.57-2.23,2.25-.66,4.53-1.23,6.73-2a3.26,3.26,0,0,0,1.68-1.69,8.18,8.18,0,0,0,.39-2.93c0-1.88-.13-3.76-.09-5.63,0-2.31-.6-3.49-2.77-4.43a49.53,49.53,0,0,1-11.67-7.26A77.65,77.65,0,0,1,50,152a31,31,0,0,1-4.58-8.52,16.22,16.22,0,0,0-1.07-2.41,2.55,2.55,0,0,0-2.41-1.46c-7.09-.08-12.1-3.61-15.73-9.5a19,19,0,0,1-2.83-9.81c-.05-6.14,2.16-11.54,7.65-15,1.66-1,2.27-2.22,1.77-4.06-.4-1.46-.77-2.93-1.14-4.4-.21-.85-.42-1.7-.6-2.57-.37-1.87-.83-3.74-1.05-5.64a93.49,93.49,0,0,1-.89-10c-.07-5.63-.05-11.28.35-16.89a30.79,30.79,0,0,1,2.06-8.34,59.76,59.76,0,0,1,4.27-9.22A35.4,35.4,0,0,1,49,31c2-1.12,4.09-2,6.09-3.07a6.45,6.45,0,0,0,2.09-1.72A48.53,48.53,0,0,1,73.65,12.27a62.72,62.72,0,0,1,11.6-4.36C90.14,6.47,95.06,6.76,99.9,6.26Zm1.73,165.66v.17c.76,0,1.52,0,2.27,0a53.08,53.08,0,0,0,7.27-.63,54.35,54.35,0,0,0,8.56-2.56,77.87,77.87,0,0,0,9.33-4.29,54,54,0,0,0,14.57-12.5c3-3.54,5.86-7.2,7.37-11.68.83-2.46,1.62-4.92,2.43-7.39.57-1.74,1.39-2,2.95-1.16,2.55,1.43,5.15,2.23,8.11,1.12a11,11,0,0,0,7.29-8.49,22.83,22.83,0,0,0,.08-6c-.17-3.38-4.32-7.88-8.34-7.46a15.26,15.26,0,0,0-5.72,1.51c-1.78.93-2.7.2-2.67-1.79.05-4.24.15-8.48-.06-12.71a53.51,53.51,0,0,0-1.21-8,104.24,104.24,0,0,0-2.44-10.23,56.48,56.48,0,0,0-6-12.65,2.72,2.72,0,0,0-3.37-1.55c-1.49.26-3,.48-4.5.63a2.12,2.12,0,0,0-2.22,2.28,3.31,3.31,0,0,1-2,3.17A45.54,45.54,0,0,1,127,73.64a35.83,35.83,0,0,1-4.29.44,55.55,55.55,0,0,1-6.64.76c-2.94,0-5.87-.48-8.82-.63a63.71,63.71,0,0,1-13.65-2.4,59.22,59.22,0,0,1-8.91-3.45A66.65,66.65,0,0,1,69.2,58.19c-1.64-1.41-2.41-1.42-4,.12a56,56,0,0,0-9.39,12.23,64.09,64.09,0,0,0-5.71,13.92c-1,3.34-1.2,6.75-1.83,10.12a56.62,56.62,0,0,0-.4,15.76,3.17,3.17,0,0,1-.73,2.1c-.19.21-1.19-.21-1.8-.43-1.9-.68-3.75-1.75-5.71-2-3.55-.51-7.62,2.57-8.56,6.35a13.18,13.18,0,0,0,5.71,14.82c3,2,6,2.22,9.11.33a4.36,4.36,0,0,1,.77-.33,1.74,1.74,0,0,1,2.49,1.11,21.57,21.57,0,0,1,1.06,3.18,34,34,0,0,0,6.28,13.47,84.93,84.93,0,0,0,8,8.71,49.16,49.16,0,0,0,24.16,12.93c.51.12,1,.3,1.51.41a34.57,34.57,0,0,0,4.66.92C97.14,172,99.39,171.92,101.63,171.92ZM116,67.11c1.8,0,4.88,0,8,0,1.72,0,2.27-1.1,1.42-2.57-.32-.55-.72-1.07-1-1.64a4.24,4.24,0,0,1,.12-4.35c.87-1.33,2.25-1.43,3.64-1.2a11.89,11.89,0,0,1,2,.74,9.85,9.85,0,0,0,2.59.86c3.95.27,7.84.57,11.63-1.33a13.45,13.45,0,0,0,6.32-5.94c.86-1.68.31-2.48-1.61-2.58a14.3,14.3,0,0,1-4-.57,18.7,18.7,0,0,1-7.73-5.3c-2-2.17-3.93-4.32-6-6.33a33.41,33.41,0,0,0-12.19-7.64c-2.17-.75-4.44-1.24-6.65-1.9-5-1.48-10-1.2-15-.14a47.54,47.54,0,0,1-6,.89A3,3,0,0,1,88,25.36a3.54,3.54,0,0,1,2.49-4,43,43,0,0,1,11.67-1.82c7.55-.34,14.83.59,21.71,3.85a51,51,0,0,1,17.22,13.35,16.4,16.4,0,0,0,6.21,5,3.67,3.67,0,0,0,3.55-.15c1-.63,2-1.3,3-1.92,2.15-1.28,4.43-.44,4.93,2a20.81,20.81,0,0,1-1,11.32,18.77,18.77,0,0,1-5.54,8c-1.2,1-1.21,1.86-.49,3.19a80.6,80.6,0,0,1,3.9,7.41,88,88,0,0,1,4.16,11.7c1,3.76,1.26,7.7,1.91,11.56.07.46.5.86.76,1.28.35-.41.88-.78,1-1.25.35-1.19.51-2.42.76-3.63.73-3.39,1.86-6.75,2.1-10.17.42-5.85.33-11.74.35-17.62a16.54,16.54,0,0,0-.59-4.13c-.78-3-1.64-6.08-2.56-9.09-.76-2.48-1.54-5-2.52-7.35a5.43,5.43,0,0,1,.06-4.69,45.25,45.25,0,0,0,2.15-6.22,2.08,2.08,0,0,0-.53-1.76c-.26-.24-1.18,0-1.65.27-5.67,3.32-11.46,3.75-17.36.73a46.12,46.12,0,0,1-5.41-3.32c-6.95-4.85-13.84-9.81-22.18-12.07a64.38,64.38,0,0,0-10.61-2.36,51.33,51.33,0,0,0-26.75,4.29A39.55,39.55,0,0,0,65.52,27.3c-1.35,1.52-2.46,3.25-3.82,4.77A10,10,0,0,1,59,34.17c-1.29.69-2.73,1.07-4.07,1.68-6.51,2.95-11.06,8-14.28,14.17a42.84,42.84,0,0,0-4.79,18.53,94.82,94.82,0,0,0,.43,14c.6,5.22,1.83,10.37,2.84,15.54.08.41.52.75.8,1.12.3-.36.79-.7.85-1.11.17-1.14.06-2.32.24-3.46A99.45,99.45,0,0,1,43,83.58a96.73,96.73,0,0,1,4.18-11.44A55.72,55.72,0,0,1,60,53.66c2.09-2,2.75-2.29.58-5.21a4.61,4.61,0,0,1-.75-3,3.15,3.15,0,0,1,2.52-2.75A3.49,3.49,0,0,1,66,44.13c1.12,1.37,2.18,2.77,3.36,4.07A52.63,52.63,0,0,0,86.27,61.05a71.35,71.35,0,0,0,11.12,4.34A50.32,50.32,0,0,0,116,67.11ZM84.75,184.27h0c0,1.72,0,3.44,0,5.16A3.62,3.62,0,0,1,82.62,193,37.8,37.8,0,0,1,78,194.62c-3,.9-6.06,1.72-9.08,2.58a2.78,2.78,0,0,0-.76.36,1.45,1.45,0,0,0-.6,2.3c.56.88,1.13,1.75,1.74,2.59a32.22,32.22,0,0,0,9.84,9c4.24,2.48,8.65,4.45,13.61,4.89.36,0,.7.15,1.06.2a47.94,47.94,0,0,0,6.16.75A45.07,45.07,0,0,0,114,214.88a33.94,33.94,0,0,0,19.18-15.21c1-1.7.51-2.76-1.43-3.2-1.43-.32-2.83-.78-4.25-1.17-.61-.17-1.24-.29-1.85-.47-1.87-.57-3.77-1.05-5.58-1.75a3.44,3.44,0,0,1-2.29-3.47c0-3.2,0-6.4,0-9.6a9.72,9.72,0,0,0,0-1.43,1.32,1.32,0,0,0-1.71-1.18c-1.89.43-3.78.93-5.69,1.19-4.22.57-8.42,1.53-12.74.72-2.31-.43-4.68-.59-7-1a21.62,21.62,0,0,1-3.57-.87c-1.49-.51-2.3,0-2.31,1.63S84.75,182.55,84.75,184.27Z"/><path class="cls-1" d="M101.63,171.92c-2.24,0-4.49.12-6.72,0a34.57,34.57,0,0,1-4.66-.92c-.51-.11-1-.29-1.51-.41a49.16,49.16,0,0,1-24.16-12.93,84.93,84.93,0,0,1-8-8.71,34,34,0,0,1-6.28-13.47,21.57,21.57,0,0,0-1.06-3.18,1.74,1.74,0,0,0-2.49-1.11,4.36,4.36,0,0,0-.77.33c-3.11,1.89-6.13,1.64-9.11-.33a13.18,13.18,0,0,1-5.71-14.82c.94-3.78,5-6.86,8.56-6.35,2,.28,3.81,1.35,5.71,2,.61.22,1.61.64,1.8.43a3.17,3.17,0,0,0,.73-2.1,56.62,56.62,0,0,1,.4-15.76c.63-3.37.86-6.78,1.83-10.12a64.09,64.09,0,0,1,5.71-13.92,56,56,0,0,1,9.39-12.23c1.55-1.54,2.32-1.53,4-.12A66.65,66.65,0,0,0,84.67,68.36a59.22,59.22,0,0,0,8.91,3.45,63.71,63.71,0,0,0,13.65,2.4c3,.15,5.88.62,8.82.63a55.55,55.55,0,0,0,6.64-.76,35.83,35.83,0,0,0,4.29-.44,45.54,45.54,0,0,0,6.38-1.93,3.31,3.31,0,0,0,2-3.17,2.12,2.12,0,0,1,2.22-2.28c1.51-.15,3-.37,4.5-.63a2.72,2.72,0,0,1,3.37,1.55,56.48,56.48,0,0,1,6,12.65,104.24,104.24,0,0,1,2.44,10.23,53.51,53.51,0,0,1,1.21,8c.21,4.23.11,8.47.06,12.71,0,2,.89,2.72,2.67,1.79a15.26,15.26,0,0,1,5.72-1.51c4-.42,8.17,4.08,8.34,7.46a22.83,22.83,0,0,1-.08,6,11,11,0,0,1-7.29,8.49c-3,1.11-5.56.31-8.11-1.12-1.56-.88-2.38-.58-2.95,1.16-.81,2.47-1.6,4.93-2.43,7.39-1.51,4.48-4.33,8.14-7.37,11.68a54,54,0,0,1-14.57,12.5,77.87,77.87,0,0,1-9.33,4.29,54.35,54.35,0,0,1-8.56,2.56,53.08,53.08,0,0,1-7.27.63c-.75.06-1.51,0-2.27,0Zm1-13.32c1.45-.36,3.4-.91,5.38-1.31a18,18,0,0,0,8.18-4.3,6.55,6.55,0,0,0,1.72-2.64,3.32,3.32,0,0,0-1.71-3.75c-1.21-.79-2.09-.72-3.41.24-.74.54-1.46,1.13-2.23,1.61-5,3.12-10.05,3.63-15.27.75-1.22-.67-2.33-1.53-3.48-2.32-1.87-1.28-3.46-1-4.72.87a3.53,3.53,0,0,0,.73,4.85C91.79,156.36,96.69,157.93,102.61,158.6ZM74.17,91.81c-3-.48-5.89.67-8.71,2A18.19,18.19,0,0,0,61,96.93,3,3,0,0,0,61,101c1.25,1.52,2.6,1.87,4.22,1,.93-.47,1.8-1.08,2.75-1.47,2.93-1.23,5.92-2.25,9.17-1.44a21.12,21.12,0,0,1,5.85,2c2.51,1.48,5.18.33,5.63-2.22A3.78,3.78,0,0,0,86.5,95.1C82.78,93,78.87,91.46,74.17,91.81Zm53.44,0c-3.81-.36-7.34,1-10.7,3a12.64,12.64,0,0,0-2.65,2,2.76,2.76,0,0,0-.32,4c1.27,1.65,2.73,2.1,4.38,1.28,1.25-.62,2.4-1.47,3.7-2a15.39,15.39,0,0,1,13.8,1,6.34,6.34,0,0,0,2.28.67,3.71,3.71,0,0,0,3.71-2.3c.5-1.13.19-2.28-1-3.43a6.87,6.87,0,0,0-1.51-1.17C135.72,92.91,132,91.48,127.61,91.81ZM67.14,112.46a8.11,8.11,0,0,0,7.46,7.82,7.45,7.45,0,0,0,7.66-7.54c0-4.2-3.16-7.85-6.92-7.91A8,8,0,0,0,67.14,112.46ZM128,104.83a7.49,7.49,0,0,0-7.4,7.64c0,4.62,3.18,7.85,7.6,7.82,3.86,0,7.39-3.84,7.5-7.78C135.74,109,131.54,104.33,128,104.83Zm-27.11,34.32c.76,0,1.52,0,2.27-.14a7.6,7.6,0,0,0,5.1-2.59,2.57,2.57,0,0,0,.21-3.39c-1.3-2.06-3-2.6-5.48-1.47a4.82,4.82,0,0,1-4.13,0,8.28,8.28,0,0,0-2.65-.58,3,3,0,0,0-3,2.4,3.21,3.21,0,0,0,1.27,3.89C96.39,138.38,98.42,139.45,100.84,139.15Z"/><path class="cls-1" d="M116,67.11a50.32,50.32,0,0,1-18.59-1.72,71.35,71.35,0,0,1-11.12-4.34A52.63,52.63,0,0,1,69.4,48.2c-1.18-1.3-2.24-2.7-3.36-4.07a3.49,3.49,0,0,0-3.69-1.42,3.15,3.15,0,0,0-2.52,2.75,4.61,4.61,0,0,0,.75,3c2.17,2.92,1.51,3.17-.58,5.21A55.72,55.72,0,0,0,47.15,72.14,96.73,96.73,0,0,0,43,83.58,99.45,99.45,0,0,0,41,94.64C40.86,95.78,41,97,40.8,98.1c-.06.41-.55.75-.85,1.11-.28-.37-.72-.71-.8-1.12-1-5.17-2.24-10.32-2.84-15.54a94.82,94.82,0,0,1-.43-14A42.84,42.84,0,0,1,40.67,50C43.89,43.83,48.44,38.8,55,35.85c1.34-.61,2.78-1,4.07-1.68a10,10,0,0,0,2.68-2.1c1.36-1.52,2.47-3.25,3.82-4.77a39.55,39.55,0,0,1,13.33-9.58,51.33,51.33,0,0,1,26.75-4.29,64.38,64.38,0,0,1,10.61,2.36c8.34,2.26,15.23,7.22,22.18,12.07a46.12,46.12,0,0,0,5.41,3.32c5.9,3,11.69,2.59,17.36-.73.47-.28,1.39-.51,1.65-.27a2.08,2.08,0,0,1,.53,1.76,45.25,45.25,0,0,1-2.15,6.22,5.43,5.43,0,0,0-.06,4.69c1,2.39,1.76,4.87,2.52,7.35.92,3,1.78,6,2.56,9.09a16.54,16.54,0,0,1,.59,4.13c0,5.88.07,11.77-.35,17.62-.24,3.42-1.37,6.78-2.1,10.17-.25,1.21-.41,2.44-.76,3.63-.14.47-.67.84-1,1.25-.26-.42-.69-.82-.76-1.28-.65-3.86-.93-7.8-1.91-11.56a88,88,0,0,0-4.16-11.7,80.6,80.6,0,0,0-3.9-7.41c-.72-1.33-.71-2.17.49-3.19a18.77,18.77,0,0,0,5.54-8,20.81,20.81,0,0,0,1-11.32c-.5-2.43-2.78-3.27-4.93-2-1,.62-2,1.29-3,1.92a3.67,3.67,0,0,1-3.55.15,16.4,16.4,0,0,1-6.21-5,51,51,0,0,0-17.22-13.35c-6.88-3.26-14.16-4.19-21.71-3.85a43,43,0,0,0-11.67,1.82,3.54,3.54,0,0,0-2.49,4,3,3,0,0,0,3.35,2.73,47.54,47.54,0,0,0,6-.89c5-1.06,10-1.34,15,.14,2.21.66,4.48,1.15,6.65,1.9a33.41,33.41,0,0,1,12.19,7.64c2.11,2,4.09,4.16,6,6.33a18.7,18.7,0,0,0,7.73,5.3,14.3,14.3,0,0,0,4,.57c1.92.1,2.47.9,1.61,2.58a13.45,13.45,0,0,1-6.32,5.94c-3.79,1.9-7.68,1.6-11.63,1.33a9.85,9.85,0,0,1-2.59-.86,11.89,11.89,0,0,0-2-.74c-1.39-.23-2.77-.13-3.64,1.2a4.24,4.24,0,0,0-.12,4.35c.26.57.66,1.09,1,1.64.85,1.47.3,2.54-1.42,2.57C120.86,67.15,117.78,67.11,116,67.11Z"/><path class="cls-1" d="M84.75,184.27c0-1.72,0-3.44,0-5.16s.82-2.14,2.31-1.63a21.62,21.62,0,0,0,3.57.87c2.32.37,4.69.53,7,1,4.32.81,8.52-.15,12.74-.72,1.91-.26,3.8-.76,5.69-1.19a1.32,1.32,0,0,1,1.71,1.18,9.72,9.72,0,0,1,0,1.43c0,3.2,0,6.4,0,9.6a3.44,3.44,0,0,0,2.29,3.47c1.81.7,3.71,1.18,5.58,1.75.61.18,1.24.3,1.85.47,1.42.39,2.82.85,4.25,1.17,1.94.44,2.45,1.5,1.43,3.2A33.94,33.94,0,0,1,114,214.88,45.07,45.07,0,0,1,100,217.26a47.94,47.94,0,0,1-6.16-.75c-.36,0-.7-.17-1.06-.2-5-.44-9.37-2.41-13.61-4.89a32.22,32.22,0,0,1-9.84-9c-.61-.84-1.18-1.71-1.74-2.59a1.45,1.45,0,0,1,.6-2.3,2.78,2.78,0,0,1,.76-.36c3-.86,6.06-1.68,9.08-2.58A37.8,37.8,0,0,0,82.62,193a3.62,3.62,0,0,0,2.19-3.56c0-1.72,0-3.44,0-5.16Z"/><path d="M102.61,158.6c-5.92-.67-10.82-2.24-14.81-6a3.53,3.53,0,0,1-.73-4.85c1.26-1.86,2.85-2.15,4.72-.87,1.15.79,2.26,1.65,3.48,2.32,5.22,2.88,10.32,2.37,15.27-.75.77-.48,1.49-1.07,2.23-1.61,1.32-1,2.2-1,3.41-.24a3.32,3.32,0,0,1,1.71,3.75,6.55,6.55,0,0,1-1.72,2.64,18,18,0,0,1-8.18,4.3C106,157.69,104.06,158.24,102.61,158.6Z"/><path d="M74.17,91.81c4.7-.35,8.61,1.15,12.33,3.29A3.78,3.78,0,0,1,88.57,99c-.45,2.55-3.12,3.7-5.63,2.22a21.12,21.12,0,0,0-5.85-2c-3.25-.81-6.24.21-9.17,1.44-1,.39-1.82,1-2.75,1.47-1.62.82-3,.47-4.22-1a3,3,0,0,1,0-4.07,18.19,18.19,0,0,1,4.47-3.13C68.28,92.48,71.21,91.33,74.17,91.81Z"/><path d="M127.61,91.81c4.38-.33,8.11,1.1,11.69,3A6.87,6.87,0,0,1,140.81,96c1.19,1.15,1.5,2.3,1,3.43a3.71,3.71,0,0,1-3.71,2.3,6.34,6.34,0,0,1-2.28-.67,15.39,15.39,0,0,0-13.8-1c-1.3.49-2.45,1.34-3.7,2-1.65.82-3.11.37-4.38-1.28a2.76,2.76,0,0,1,.32-4,12.64,12.64,0,0,1,2.65-2C120.27,92.86,123.8,91.45,127.61,91.81Z"/><path d="M67.14,112.46a8,8,0,0,1,8.2-7.63c3.76.06,7,3.71,6.92,7.91a7.45,7.45,0,0,1-7.66,7.54A8.11,8.11,0,0,1,67.14,112.46Z"/><path d="M128,104.83c3.59-.5,7.79,4.16,7.7,7.68-.11,3.94-3.64,7.75-7.5,7.78-4.42,0-7.56-3.2-7.6-7.82A7.49,7.49,0,0,1,128,104.83Z"/><path d="M100.84,139.15c-2.42.3-4.45-.77-6.44-1.88a3.21,3.21,0,0,1-1.27-3.89,3,3,0,0,1,3-2.4,8.28,8.28,0,0,1,2.65.58,4.82,4.82,0,0,0,4.13,0c2.43-1.13,4.18-.59,5.48,1.47a2.57,2.57,0,0,1-.21,3.39,7.6,7.6,0,0,1-5.1,2.59C102.36,139.11,101.6,139.11,100.84,139.15Z"/></g></g></svg>