<svg xmlns="http://www.w3.org/2000/svg" viewBox="0 0 292.56 262.32">
    <defs>
        <style>.cls-1{fill:#fff;}</style>
    </defs>
    <g id="Layer_2" data-name="Layer 2">
        <g id="Layer_1-2" data-name="Layer 1">
            <path
                d="M112.8,40c2.51.71,5.11-.86,7.87-2.06a71.74,71.74,0,0,1,11-4.14A62.58,62.58,0,0,1,150,31.63c4.23.19,8.53-.06,12.68.63a58,58,0,0,1,20.54,7.25,9.43,9.43,0,0,0,3.78.85c1.18.12,2.4-.11,3.59,0,5.85.3,11.37,1.74,16.1,5.35a25,25,0,0,1,8.13,11.08c1.71,4.43,3.16,9,5,13.33,1,2.44,2.68,4.62,4,7a25.17,25.17,0,0,1,2.77,8.1c.88,5.18.39,10.32-.33,15.41a83.42,83.42,0,0,1-2.56,9.82c-.1.39-.29.75-.4,1.13-.68,2.26-.31,2.91,1.83,3.92a15.76,15.76,0,0,1,6.88,7,30.56,30.56,0,0,1,4.11,15.46,32.47,32.47,0,0,1-4.29,15.3,28.74,28.74,0,0,1-6.47,8.11,13.21,13.21,0,0,1-5.8,3.22,2.66,2.66,0,0,0-2.24,3.06,139,139,0,0,1-.4,26.59c-.2,1.75-.33,3.51-.39,5.26-.05,1.52.69,2.15,2.14,2.56,2.83.81,5.62,1.74,8.41,2.68,1.89.63,3.75,1.36,5.61,2.08,3.61,1.39,7.25,2.7,10.8,4.23,4.29,1.85,8.55,3.78,12.71,5.88,3.89,2,7.71,4.08,11.43,6.33s7.46,4.8,11.11,7.33c2.57,1.78,2.66,4.58.39,6.31a2.62,2.62,0,0,1-3.32.19c-1.63-1.09-3.2-2.27-4.87-3.28-5.06-3.05-10.13-6.09-15.25-9-2.63-1.51-5.35-2.87-8.1-4.15-3.11-1.44-6.29-2.73-9.46-4-3.39-1.39-6.79-2.78-10.22-4.07-2.38-.9-4.84-1.61-7.25-2.42-1.21-.41-2.4-.88-3.61-1.29-2.39-.83-3.21-.56-4.32,1.73a66.69,66.69,0,0,1-13.38,18.74,62.71,62.71,0,0,1-20.07,13.31,85.5,85.5,0,0,1-13,3.89c-7.78,1.84-15.58,1.22-23.4,1.21a21.75,21.75,0,0,1-3.55-.53c-1.88-.34-3.78-.62-5.64-1.07-2.32-.56-4.65-1.14-6.91-1.92a64.91,64.91,0,0,1-14-6.79A58.65,58.65,0,0,1,93,216c-1.23-2.23-2.12-4.65-3.21-7-.84-1.8-1.35-1.9-3.18-1.19S83,209,81.23,209.6c-2.19.72-4.39,1.43-6.58,2.18-1.77.61-3.56,1.19-5.29,1.91-4.57,1.91-9.18,3.73-13.64,5.87-5.43,2.6-10.82,5.33-16.06,8.29-4.17,2.35-8.1,5.14-12.13,7.73-.57.37-1.11.78-1.69,1.13-2.06,1.26-3.33,1-4.91-1.07a3,3,0,0,1,.79-4.42,94.46,94.46,0,0,1,8.84-6.17c5.41-3.24,10.9-6.37,16.49-9.28,4.14-2.15,8.48-3.93,12.76-5.78,3.37-1.45,6.78-2.81,10.21-4.12,2.31-.89,4.67-1.62,7-2.41,3-1,6.06-2,9.07-3a1.7,1.7,0,0,0,1.2-2.08c-2.26-10.51-1.48-21.18-1.7-31.8A2.7,2.7,0,0,0,84,163.89,46.88,46.88,0,0,1,79,161.5a26.61,26.61,0,0,1-9.61-11.56,35.7,35.7,0,0,1-2.59-7.19,38.39,38.39,0,0,1-.67-7.36A26.1,26.1,0,0,1,72,118.06a17.53,17.53,0,0,1,2.88-2.69,2.92,2.92,0,0,0,1.18-3.55c-.84-2.57-1.66-5.16-2.31-7.79-.5-2-.75-4.14-1.05-6.23-.11-.7,0-1.44-.08-2.15a29.67,29.67,0,0,1,3.9-16.8,34.36,34.36,0,0,0,2.94-8.94c1.12-5,1.92-10.06,4.71-14.49A33.66,33.66,0,0,1,112.8,40ZM92,108.32h.28c0,4.23,0,8.47,0,12.71,0,1.67-.72,2.17-2.23,1.41-1-.51-2-1-3-1.61A7.63,7.63,0,0,0,77.93,122c-3.52,3.64-4.66,8.33-4.79,13.1a24.85,24.85,0,0,0,5.38,16.05,36.91,36.91,0,0,0,4.65,4.62,1.89,1.89,0,0,0,1.71.29,2.3,2.3,0,0,0,.8-1.67c.13-4.92.08-9.84.28-14.76.16-3.58.52-7.17,1-10.73a3.46,3.46,0,0,1,3.19-3,3.85,3.85,0,0,1,3.49,2.5c.61,1.51,1.13,3.07,1.75,4.59a33.21,33.21,0,0,0,8.72,12.88,15.13,15.13,0,0,0,6.9,3.69,23,23,0,0,0,6.2.35,34.24,34.24,0,0,1,12.47,1,62.79,62.79,0,0,1,6,2,41.74,41.74,0,0,1,4.21,2.27c1.66.91,2.56.46,2.81-1.4.06-.52.14-1,.15-1.55.07-6.88.24-13.76.15-20.63a36.54,36.54,0,0,0-2.74-12.82c-1.68-4.3-5-6.54-9.58-7.06a18.19,18.19,0,0,0-2.75-.21c-4.1.22-8.21.35-12.29.82a41.37,41.37,0,0,0-6.34,1.72,3.48,3.48,0,0,1-4.1-1.72,3,3,0,0,1,.53-3.84,6.43,6.43,0,0,1,2.29-1.4,31.32,31.32,0,0,1,8.13-1.94c1.61-.11,3.18-.77,4.79-1a32.28,32.28,0,0,1,14.34,1.27,17.51,17.51,0,0,1,7.34,4.14c4.45,4.44,5.87,10.22,6.83,16.15.3,1.85.3,3.74.49,5.61A70.63,70.63,0,0,1,150.1,146c-.33,3.22-.45,6.46-.63,9.69a1.73,1.73,0,0,0,1.68,2,23.49,23.49,0,0,0,5.58-.54c5.1-1.54,10.12-3.36,15.19-5a12.06,12.06,0,0,1,3.35-.77c4.88-.13,9.76-.18,14.63-.18a13.69,13.69,0,0,0,9.82-4.08c4.24-4.17,6.38-9.44,7.37-15.27a11.26,11.26,0,0,1,1.53-3.93,3.28,3.28,0,0,1,2.2-1.16c2-.22,3.78,1.7,4,4.06.48,4.84,1,9.68,1.39,14.54.27,3.5.31,7,.47,10.54.06,1.52,1,2.08,2.31,1.3a11.64,11.64,0,0,0,2.56-1.95,24.76,24.76,0,0,0,7-15.38,24.12,24.12,0,0,0-3-14.54c-1.72-2.94-5.79-5.55-9.29-3.84a35.87,35.87,0,0,1-3.73,1.57c-.59.21-1.47.44-1.85.16a2.61,2.61,0,0,1-.65-1.85c-.11-7.43.09-14.88-.33-22.29-.24-4.1-1.39-8.17-2.33-12.2a82.48,82.48,0,0,0-2.77-9.53,83.33,83.33,0,0,0-4-8.84c-4.26-8.35-9.91-15.55-17.79-20.82a52,52,0,0,0-13.31-6.42,67.7,67.7,0,0,0-13.81-2.68,86.23,86.23,0,0,0-10.54,0,19.28,19.28,0,0,0-2.72.35l-5,.84a22.57,22.57,0,0,0-3.06.56c-2.51.77-5,1.59-7.47,2.51a45.5,45.5,0,0,0-15.81,10A54.64,54.64,0,0,0,98.51,72.06a68.77,68.77,0,0,0-4.88,17.21c-.3,2.29-1,4.54-1.21,6.83C92.12,100.16,92.1,104.25,92,108.32ZM210.18,176h.07c0-2,.07-4,0-6q-.42-9.71-1-19.41c0-.59-.65-1.14-1-1.72a9.23,9.23,0,0,0-1.49,1c-1.16,1.15-2.15,2.49-3.39,3.54-2.38,2-5,3.74-8.1,4.21a44.18,44.18,0,0,1-8.83.35A44.13,44.13,0,0,0,165.38,162a20.23,20.23,0,0,1-8.62,2.33c-4.27,0-8.55-.07-12.82-.18a6.24,6.24,0,0,1-2.31-.58c-2.84-1.27-5.6-2.7-8.47-3.9a26.83,26.83,0,0,0-6.11-1.95,42.31,42.31,0,0,0-7.3-.23c-3.64.08-7.2.22-10.77-1a30.5,30.5,0,0,1-7-3.25,25.53,25.53,0,0,1-6.64-6.35,2.24,2.24,0,0,0-1.61-.92c-.88.08-1,1-1,1.77,0,1.08-.05,2.16-.06,3.24-.15,11.59-.87,23.19.51,34.75.65,5.46.5,11,2.05,16.38a56.77,56.77,0,0,0,4.68,11.49c4.43,8.07,11.08,14,18.66,18.95.36.24,1,.07,1.49.09,0-.5.21-1.12,0-1.48a37.18,37.18,0,0,1-3.77-9,4.14,4.14,0,0,1,2.29-4.85c1.33-.6,2.94.11,4,1.8a7.61,7.61,0,0,1,.61,1.29c.49,1.31,1,2.62,1.45,3.93a24.57,24.57,0,0,0,9.59,12c2.18,1.45,4.28,3.08,7,3.65a51.15,51.15,0,0,0,12.77.91c3.73-.13,7.3-.68,10.63-2.75,5.33-3.32,9.49-7.51,11.66-13.5.52-1.43,1-2.86,1.58-4.27a3.71,3.71,0,0,1,4.32-2.37,3.61,3.61,0,0,1,2.28,4.45,44.94,44.94,0,0,1-1.82,5.43c-.69,1.65-1.66,3.18-2.43,4.8a3.72,3.72,0,0,0-.13,1.31c.46,0,.93,0,1.39,0a1.15,1.15,0,0,0,.43-.21,58,58,0,0,0,17.81-15.46,55.91,55.91,0,0,0,7.71-13.61,37,37,0,0,0,2.84-13.51C210.19,186.05,210.18,181,210.18,176ZM104.24,47.86l-.5.47a4.91,4.91,0,0,0-.79.28,56.79,56.79,0,0,0-5.1,2.9c-4.45,3.1-8.11,6.88-9.51,12.35-.9,3.51-1.65,7.06-2.62,10.55a46.33,46.33,0,0,1-2.49,7.07,42.58,42.58,0,0,0-3.09,8,18.19,18.19,0,0,0,0,10c.24.75.25,1.57.43,2.35.64,2.63,1.29,5.26,2,7.87a1.21,1.21,0,0,0,.91.73c.32,0,.66-.48.88-.81a1.8,1.8,0,0,0,.13-.82c.22-3.26.42-6.53.68-9.79a77.45,77.45,0,0,1,.92-9.78,108.05,108.05,0,0,1,4.25-16.43,69.49,69.49,0,0,1,8-15.75c1.76-2.51,3.89-4.76,5.82-7.14a1.68,1.68,0,0,0,.34-1A3.58,3.58,0,0,0,104.24,47.86ZM220,92.13a20.91,20.91,0,0,0-3.75-13.72,57.32,57.32,0,0,1-6.14-13.86,42.54,42.54,0,0,0-4.26-9.61c-2.07-3.28-5.26-5-8.67-6.5a1.31,1.31,0,0,0-1.22.27c-.17.25,0,.86.21,1.23a4.68,4.68,0,0,0,.87,1,58,58,0,0,1,10.55,15.47c1.15,2.37,2.18,4.8,3.11,7.26s1.94,5.23,2.68,7.92c.83,3,1.22,6.19,2.16,9.18a26.66,26.66,0,0,1,1.05,8.4,28.53,28.53,0,0,0,.17,3.46c.05.39.43.74.65,1.1.3-.29.74-.53.88-.89A27.11,27.11,0,0,0,220,92.13Z" />
            <path class="cls-1"
                d="M92,108.32c.14-4.07.16-8.16.46-12.22.17-2.29.91-4.54,1.21-6.83a68.77,68.77,0,0,1,4.88-17.21,54.64,54.64,0,0,1,12.63-19.19,45.5,45.5,0,0,1,15.81-10c2.46-.92,5-1.74,7.47-2.51a22.57,22.57,0,0,1,3.06-.56l5-.84a19.28,19.28,0,0,1,2.72-.35,86.23,86.23,0,0,1,10.54,0,67.7,67.7,0,0,1,13.81,2.68,52,52,0,0,1,13.31,6.42c7.88,5.27,13.53,12.47,17.79,20.82a83.33,83.33,0,0,1,4,8.84,82.48,82.48,0,0,1,2.77,9.53c.94,4,2.09,8.1,2.33,12.2.42,7.41.22,14.86.33,22.29a2.61,2.61,0,0,0,.65,1.85c.38.28,1.26.05,1.85-.16a35.87,35.87,0,0,0,3.73-1.57c3.5-1.71,7.57.9,9.29,3.84a24.12,24.12,0,0,1,3,14.54,24.76,24.76,0,0,1-7,15.38,11.64,11.64,0,0,1-2.56,1.95c-1.29.78-2.25.22-2.31-1.3-.16-3.51-.2-7-.47-10.54-.37-4.86-.91-9.7-1.39-14.54-.23-2.36-2.05-4.28-4-4.06a3.28,3.28,0,0,0-2.2,1.16,11.26,11.26,0,0,0-1.53,3.93c-1,5.83-3.13,11.1-7.37,15.27a13.69,13.69,0,0,1-9.82,4.08c-4.87,0-9.75.05-14.63.18a12.06,12.06,0,0,0-3.35.77c-5.07,1.66-10.09,3.48-15.19,5a23.49,23.49,0,0,1-5.58.54,1.73,1.73,0,0,1-1.68-2c.18-3.23.3-6.47.63-9.69a70.63,70.63,0,0,0-.18-14.61c-.19-1.87-.19-3.76-.49-5.61-1-5.93-2.38-11.71-6.83-16.15a17.51,17.51,0,0,0-7.34-4.14,32.28,32.28,0,0,0-14.34-1.27c-1.61.23-3.18.89-4.79,1a31.32,31.32,0,0,0-8.13,1.94,6.43,6.43,0,0,0-2.29,1.4,3,3,0,0,0-.53,3.84,3.48,3.48,0,0,0,4.1,1.72,41.37,41.37,0,0,1,6.34-1.72c4.08-.47,8.19-.6,12.29-.82a18.19,18.19,0,0,1,2.75.21c4.55.52,7.9,2.76,9.58,7.06A36.54,36.54,0,0,1,143,131.67c.09,6.87-.08,13.75-.15,20.63,0,.51-.09,1-.15,1.55-.25,1.86-1.15,2.31-2.81,1.4a41.74,41.74,0,0,0-4.21-2.27,62.79,62.79,0,0,0-6-2,34.24,34.24,0,0,0-12.47-1,23,23,0,0,1-6.2-.35,15.13,15.13,0,0,1-6.9-3.69,33.21,33.21,0,0,1-8.72-12.88c-.62-1.52-1.14-3.08-1.75-4.59a3.85,3.85,0,0,0-3.49-2.5,3.46,3.46,0,0,0-3.19,3c-.46,3.56-.82,7.15-1,10.73-.2,4.92-.15,9.84-.28,14.76a2.3,2.3,0,0,1-.8,1.67,1.89,1.89,0,0,1-1.71-.29,36.91,36.91,0,0,1-4.65-4.62,24.85,24.85,0,0,1-5.38-16.05c.13-4.77,1.27-9.46,4.79-13.1a7.63,7.63,0,0,1,9.14-1.19c1,.56,2,1.1,3,1.61,1.51.76,2.24.26,2.23-1.41,0-4.24,0-8.48,0-12.71Zm102.3,5.45c2.11,0,3.54-.9,4.06-2.28a3.07,3.07,0,0,0-1.21-3.69,5.42,5.42,0,0,0-1.78-1c-3-.84-6.07-1.64-9.14-2.37a18.2,18.2,0,0,0-4-.56c-4.73-.07-9.44-.42-14.09,1.25a32,32,0,0,0-7.52,3.56,14.66,14.66,0,0,0-3.1,2.94c-1.53,1.94-.06,4.91,2.41,5.18,1.62.18,2.7-.76,3.84-1.65a15.93,15.93,0,0,1,8.13-3.51,17.73,17.73,0,0,0,2.58-.48,13.54,13.54,0,0,1,6.17-.24c1.72.34,3.47.51,5.19.85s3.48.79,5.22,1.2Zm-72.34,4.62v.06c-1.36,0-2.72-.06-4.07,0a4.12,4.12,0,0,0-4.13,4.58,10.09,10.09,0,0,0,1.29,3.8,8.07,8.07,0,0,0,6.89,4.34c3.43.18,7.4-3.51,7.92-6.91.63-4.08-1.57-6.15-5-5.89C123.84,118.45,122.88,118.39,121.92,118.39Zm59.48,0v0h-3.35l-.72,0a3.77,3.77,0,0,0-3.59,2.84c-.58,1.68-.08,3.23.43,4.79,1,3.14,4.8,5,7.26,5.13,4.38.25,8.65-5,7.85-9.34a3.7,3.7,0,0,0-3.81-3.42C184.12,118.36,182.76,118.43,181.4,118.43Z" />
            <path class="cls-1"
                d="M210.18,176c0,5,0,10.08,0,15.12a37,37,0,0,1-2.84,13.51,55.91,55.91,0,0,1-7.71,13.61,58,58,0,0,1-17.81,15.46,1.15,1.15,0,0,1-.43.21c-.46,0-.93,0-1.39,0a3.72,3.72,0,0,1,.13-1.31c.77-1.62,1.74-3.15,2.43-4.8a44.94,44.94,0,0,0,1.82-5.43,3.61,3.61,0,0,0-2.28-4.45,3.71,3.71,0,0,0-4.32,2.37c-.56,1.41-1.06,2.84-1.58,4.27-2.17,6-6.33,10.18-11.66,13.5-3.33,2.07-6.9,2.62-10.63,2.75a51.15,51.15,0,0,1-12.77-.91c-2.68-.57-4.78-2.2-7-3.65a24.57,24.57,0,0,1-9.59-12c-.5-1.31-1-2.62-1.45-3.93a7.61,7.61,0,0,0-.61-1.29c-1.07-1.69-2.68-2.4-4-1.8a4.14,4.14,0,0,0-2.29,4.85,37.18,37.18,0,0,0,3.77,9c.22.36,0,1,0,1.48-.5,0-1.13.15-1.49-.09-7.58-5-14.23-10.88-18.66-18.95a56.77,56.77,0,0,1-4.68-11.49c-1.55-5.4-1.4-10.92-2.05-16.38-1.38-11.56-.66-23.16-.51-34.75,0-1.08,0-2.16.06-3.24,0-.81.15-1.69,1-1.77a2.24,2.24,0,0,1,1.61.92,25.53,25.53,0,0,0,6.64,6.35,30.5,30.5,0,0,0,7,3.25c3.57,1.24,7.13,1.1,10.77,1a42.31,42.31,0,0,1,7.3.23,26.83,26.83,0,0,1,6.11,1.95c2.87,1.2,5.63,2.63,8.47,3.9a6.24,6.24,0,0,0,2.31.58c4.27.11,8.55.15,12.82.18a20.23,20.23,0,0,0,8.62-2.33A44.13,44.13,0,0,1,186.45,158a44.18,44.18,0,0,0,8.83-.35c3.08-.47,5.72-2.22,8.1-4.21,1.24-1,2.23-2.39,3.39-3.54a9.23,9.23,0,0,1,1.49-1c.35.58,1,1.13,1,1.72q.57,9.7,1,19.41c.08,2,0,4,0,6Zm-28.27,12.95h4.67a4.11,4.11,0,0,0,3.49-3.43,3.92,3.92,0,0,0-3.23-3.39c-3.84-.44-7.72-.67-11.52-1.37a31.29,31.29,0,0,1-7.8-2.5,36.81,36.81,0,0,1-11.76-8.95,5.25,5.25,0,0,0-7.51,0,37,37,0,0,1-10.6,7.74c-2.08,1-4.14,2.29-6.61,2.33a9.77,9.77,0,0,0-1.63.42,41.69,41.69,0,0,1-4.81.83c-2.51.15-5,0-7.55.13a3.83,3.83,0,0,0-3.43,3.17,3.38,3.38,0,0,0,2.43,3.45,6.26,6.26,0,0,0,1.87.31,48,48,0,0,0,4.8-.08c4-.33,8.08-.12,11.91-1.75a6.11,6.11,0,0,1,4.68-.2c2.08.79,4.19,1.51,6.3,2.21,5.52,1.84,10.75.53,15.8-1.7a7.15,7.15,0,0,1,5.63-.46c2,.71,4.14,1.15,6.14,1.9A27.24,27.24,0,0,0,181.91,188.92Z" />
            <path class="cls-1"
                d="M104.24,47.86a3.58,3.58,0,0,1,.3,1.07,1.68,1.68,0,0,1-.34,1c-1.93,2.38-4.06,4.63-5.82,7.14a69.49,69.49,0,0,0-8,15.75,108.05,108.05,0,0,0-4.25,16.43A77.45,77.45,0,0,0,85.21,99c-.26,3.26-.46,6.53-.68,9.79a1.8,1.8,0,0,1-.13.82c-.22.33-.56.79-.88.81a1.21,1.21,0,0,1-.91-.73c-.71-2.61-1.36-5.24-2-7.87-.18-.78-.19-1.6-.43-2.35a18.19,18.19,0,0,1,0-10,42.58,42.58,0,0,1,3.09-8,46.33,46.33,0,0,0,2.49-7.07c1-3.49,1.72-7,2.62-10.55,1.4-5.47,5.06-9.25,9.51-12.35a56.79,56.79,0,0,1,5.1-2.9,4.91,4.91,0,0,1,.79-.28Z" />
            <path class="cls-1"
                d="M220,92.13a27.11,27.11,0,0,1-1.71,10.69c-.14.36-.58.6-.88.89-.22-.36-.6-.71-.65-1.1a28.53,28.53,0,0,1-.17-3.46,26.66,26.66,0,0,0-1.05-8.4c-.94-3-1.33-6.15-2.16-9.18-.74-2.69-1.68-5.32-2.68-7.92s-2-4.89-3.11-7.26A58,58,0,0,0,197,50.92a4.68,4.68,0,0,1-.87-1c-.19-.37-.38-1-.21-1.23a1.31,1.31,0,0,1,1.22-.27c3.41,1.46,6.6,3.22,8.67,6.5a42.54,42.54,0,0,1,4.26,9.61,57.32,57.32,0,0,0,6.14,13.86A20.91,20.91,0,0,1,220,92.13Z" />
            <path
                d="M194.26,113.77,191,113c-1.74-.41-3.47-.86-5.22-1.2s-3.47-.51-5.19-.85a13.54,13.54,0,0,0-6.17.24,17.73,17.73,0,0,1-2.58.48,15.93,15.93,0,0,0-8.13,3.51c-1.14.89-2.22,1.83-3.84,1.65-2.47-.27-3.94-3.24-2.41-5.18a14.66,14.66,0,0,1,3.1-2.94,32,32,0,0,1,7.52-3.56c4.65-1.67,9.36-1.32,14.09-1.25a18.2,18.2,0,0,1,4,.56c3.07.73,6.11,1.53,9.14,2.37a5.42,5.42,0,0,1,1.78,1,3.07,3.07,0,0,1,1.21,3.69C197.8,112.87,196.37,113.82,194.26,113.77Z" />
            <path
                d="M121.92,118.39c1,0,1.92.06,2.88,0,3.45-.26,5.65,1.81,5,5.89-.52,3.4-4.49,7.09-7.92,6.91a8.07,8.07,0,0,1-6.89-4.34,10.09,10.09,0,0,1-1.29-3.8,4.12,4.12,0,0,1,4.13-4.58c1.35-.07,2.71,0,4.07,0Z" />
            <path
                d="M181.4,118.43c1.36,0,2.72-.07,4.07,0a3.7,3.7,0,0,1,3.81,3.42c.8,4.32-3.47,9.59-7.85,9.34-2.46-.14-6.24-2-7.26-5.13-.51-1.56-1-3.11-.43-4.79a3.77,3.77,0,0,1,3.59-2.84l.72,0h3.35Z" />
            <path
                d="M181.91,188.92a27.24,27.24,0,0,1-8.73-1.32c-2-.75-4.12-1.19-6.14-1.9a7.15,7.15,0,0,0-5.63.46c-5,2.23-10.28,3.54-15.8,1.7-2.11-.7-4.22-1.42-6.3-2.21a6.11,6.11,0,0,0-4.68.2c-3.83,1.63-7.91,1.42-11.91,1.75a48,48,0,0,1-4.8.08,6.26,6.26,0,0,1-1.87-.31,3.38,3.38,0,0,1-2.43-3.45,3.83,3.83,0,0,1,3.43-3.17c2.51-.08,5,0,7.55-.13a41.69,41.69,0,0,0,4.81-.83,9.77,9.77,0,0,1,1.63-.42c2.47,0,4.53-1.29,6.61-2.33a37,37,0,0,0,10.6-7.74,5.25,5.25,0,0,1,7.51,0,36.81,36.81,0,0,0,11.76,8.95,31.29,31.29,0,0,0,7.8,2.5c3.8.7,7.68.93,11.52,1.37a3.92,3.92,0,0,1,3.23,3.39,4.11,4.11,0,0,1-3.49,3.43h-4.67Zm-31.16-7.45c1.57-.22,3-.37,4.49-.64,1-.19,1.31-1.08.55-1.84-.94-.92-1.93-1.78-2.93-2.63a1.39,1.39,0,0,0-2,.07c-1.11.9-2.25,1.76-3.34,2.69-.27.22-.57.69-.49.95a1.41,1.41,0,0,0,.85.84C148.88,181.18,149.87,181.31,150.75,181.47Z" />
            <path class="cls-1"
                d="M150.75,181.47c-.88-.16-1.87-.29-2.82-.56a1.41,1.41,0,0,1-.85-.84c-.08-.26.22-.73.49-.95,1.09-.93,2.23-1.79,3.34-2.69a1.39,1.39,0,0,1,2-.07c1,.85,2,1.71,2.93,2.63.76.76.5,1.65-.55,1.84C153.79,181.1,152.32,181.25,150.75,181.47Z" />
        </g>
    </g>
</svg>