<svg xmlns="http://www.w3.org/2000/svg" viewBox="0 0 270 269.04">
    <defs>
        <style>.cls-1{fill:#fff;}</style>
    </defs>
    <g id="Layer_2" data-name="Layer 2">
        <g id="Layer_1-2" data-name="Layer 1">
            <path
                d="M182.53,202.9c0,1.92,0,3.84,0,5.76a2.55,2.55,0,0,0,1.65,2.54,16.12,16.12,0,0,0,1.9.72c2.64.78,5.3,1.47,7.92,2.29,2.21.7,4.38,1.49,6.54,2.31,3.25,1.23,6.5,2.46,9.7,3.79s6.2,2.57,9.19,4.08c4.75,2.38,9.52,4.75,14.06,7.49s9.07,6,13.5,9.12a3.58,3.58,0,0,1-.24,6.06c-1.53,1-2.83.33-4.1-.53-3.59-2.45-7.08-5.09-10.8-7.33-4.48-2.69-9.09-5.19-13.76-7.53-4.24-2.13-8.6-4.06-13-5.86-3.49-1.44-7.12-2.57-10.69-3.84-.26-.09-.53-.15-.8-.24-2.16-.75-2.25-.79-3.41,1.26a46.81,46.81,0,0,1-10.08,12.41,55.25,55.25,0,0,1-15.56,9.77,97.1,97.1,0,0,1-12.2,4.2,69.68,69.68,0,0,1-12.27,2c-4.73.34-9.51.16-14.27.06a40.41,40.41,0,0,1-5.44-.75c-1.38-.22-2.76-.46-4.12-.77a81,81,0,0,1-8.68-2.17,88.62,88.62,0,0,1-10.22-4.4A51,51,0,0,1,77.07,225.7c-.57-.87-1.06-1.79-1.66-2.63a2.47,2.47,0,0,0-3.08-.94c-2.2.82-4.4,1.66-6.58,2.54-3,1.22-6,2.4-8.94,3.74-4,1.82-8,3.6-11.86,5.73-4.92,2.74-9.67,5.78-14.44,8.77-1.79,1.12-3.39,2.54-5.16,3.71-2.25,1.5-4.35,1-5.56-1.28a2.38,2.38,0,0,1,.09-2.72,10.44,10.44,0,0,1,1.92-2.11,144.61,144.61,0,0,1,23.93-14.76c4.63-2.26,9.3-4.45,14-6.45,3.6-1.52,7.33-2.7,11-4,2.29-.82,4.57-1.64,6.88-2.39,1.6-.52,3.25-.86,4.84-1.37s2.21-1.33,2.21-3.12c0-3.68,0-7.36,0-11a6.73,6.73,0,0,0-1.17-3.94,64.71,64.71,0,0,1-7.45-15.13c-1.59-4.72-3.12-9.46-4.67-14.2-.3-.9-.8-1.61-1.82-1.66-6-.25-10.31-3.51-13.78-8.08a33.17,33.17,0,0,1-5.89-12.22c-.68-2.72-1.6-5.37-1.35-8.23.51-6,2.23-11.46,6.71-15.7a16.33,16.33,0,0,1,4.07-2.66c2.08-1,2.52-2,1.64-4.06a33,33,0,0,1-1.05-3.42c-.37-1.26-.7-2.53-1-3.8a11.12,11.12,0,0,1-.46-1.85c-.42-5.31-.9-10.64,0-15.92a38.58,38.58,0,0,1,2.15-7c.61-1.68,1.67-3.22,2.15-4.93.87-3.15,1.51-6.36,2.14-9.57a50.26,50.26,0,0,1,2.76-10A31.28,31.28,0,0,1,81.3,40a18.73,18.73,0,0,1,7.57-2.83c2.42-.23,4.8-.8,7.2-1.11a9.88,9.88,0,0,1,2.87.11,4,4,0,0,0,3.7-1.24,69.49,69.49,0,0,1,16.44-11.73,35.37,35.37,0,0,1,8.14-3.45c5.94-1.37,12-2.62,18.12-1,.62.16,1.26.23,1.89.34,7.4,1.29,13.9,4.31,19.11,9.88a15.8,15.8,0,0,0,5.28,3.63c3.75,1.64,7.72,1.49,11.62,2a9.33,9.33,0,0,1,3.56,1.16c1.54,1,1.81,2.44,1,4.09-1,2.1-1.71,2.59,1.16,4.7a20.69,20.69,0,0,1,6.78,8.72c1.32,3.11,2.36,6.35,3.45,9.55a56.53,56.53,0,0,0,5.55,12.56,25.47,25.47,0,0,1,4,13.74,51.67,51.67,0,0,1-1.21,13.32c-.95,3.75-1.75,7.53-3.07,11.17a1.52,1.52,0,0,0,1.09,2.15c6.14,2,9.59,6.41,11.82,12.26,1.65,4.32,1.56,8.71.92,13a31.3,31.3,0,0,1-4.41,11.7,26.93,26.93,0,0,1-7.15,8,11.82,11.82,0,0,1-8.4,2.57c-1.67-.19-2.3.53-2.73,2.14-.8,2.92-1.69,5.82-2.65,8.68s-2,5.57-3.06,8.31a72.3,72.3,0,0,1-6.41,11.91,7.25,7.25,0,0,0-.92,3.15C182.42,199.29,182.53,201.1,182.53,202.9Zm10-91.45h0c0-3.6.08-7.2,0-10.8a34.9,34.9,0,0,0-.72-4.84c-.21-1.18-.45-2.36-.73-3.52-.88-3.56-1.62-7.17-2.75-10.65a91.22,91.22,0,0,0-3.88-9.78,60.18,60.18,0,0,0-10.43-15.59c-1.14-1.26-1.81-1.27-3.29-.53A25.16,25.16,0,0,1,160,58.6a27.25,27.25,0,0,1-13.52-2.92c-4-2-8-4.18-12.16-5.87a76.58,76.58,0,0,0-10-2.86,41,41,0,0,0-6.46-1.27c-3.18-.29-6.39-.31-9.58-.36a5.65,5.65,0,0,0-2.43.52A48.17,48.17,0,0,0,89.12,59.53c-6.74,8.58-10.3,18.6-12.66,29.08a63.93,63.93,0,0,0-1.63,11.74c-.22,7.23,0,14.47.08,21.7,0,.94-.13,1.75-1.1,2a2.82,2.82,0,0,1-1.56-.4c-1.55-.72-3-1.64-4.64-2.2a5.91,5.91,0,0,0-3.25-.24c-4.59,1.11-7.15,4.56-7.91,9.1a23,23,0,0,0,1.46,13.4c1.84,4.11,4.06,7.89,7.9,10.46a5.8,5.8,0,0,0,6.46.23,16.09,16.09,0,0,1,1.79-.94,1.6,1.6,0,0,1,2.32,1.16c.43,1.33.84,2.66,1.21,4,1,3.76,2,7.54,3.13,11.29a80.53,80.53,0,0,0,6.78,16.22,54.4,54.4,0,0,0,17,18.6,49.37,49.37,0,0,0,12.76,6.49c4.19,1.38,8.35,2.77,12.8,2.87a50,50,0,0,0,7.55-.06,63.4,63.4,0,0,0,10.9-2.09,53.87,53.87,0,0,0,13-6.25,56.44,56.44,0,0,0,21-24.21c2.71-5.85,4.43-12,6.39-18.15.14-.46.15-.95.26-1.42.3-1.24.61-2.47.93-3.71.22-.89.52-1.76.66-2.66.29-1.83,1.28-2.31,2.84-1.37a20.3,20.3,0,0,0,3.58,1.92,4.74,4.74,0,0,0,3,.12,12.38,12.38,0,0,0,5.9-4.54,35.82,35.82,0,0,0,5-11c1.26-4.26.22-8.06-1.15-11.9a10.44,10.44,0,0,0-2.12-3.32c-2.09-2.3-4.65-3.79-7.87-3a18.71,18.71,0,0,0-4.83,2.06c-1.89,1.12-2.73,0-2.67-1.77C192.6,119,192.51,115.2,192.51,111.45ZM131.82,244.79a66.17,66.17,0,0,0,6.75-.48c4.5-.81,9.16-.69,13.55-2.28,2.42-.88,5-1.36,7.39-2.34a81.2,81.2,0,0,0,8-4,40.87,40.87,0,0,0,15.79-15c.73-1.21.51-1.89-.87-2.35s-2.6-.79-3.91-1.13a3.49,3.49,0,0,1-2.75-2.7,13.4,13.4,0,0,1-.26-3c0-1.79.09-3.59.09-5.39a1.09,1.09,0,0,0-1.79-1,8.79,8.79,0,0,0-1.21,1A55.29,55.29,0,0,1,161,214.26a65.29,65.29,0,0,1-12.88,5.13,59.57,59.57,0,0,1-13.47,2,50.54,50.54,0,0,1-10-.92,72.54,72.54,0,0,1-9.15-2.21,47,47,0,0,1-5.74-2.4,56.49,56.49,0,0,1-15.23-10.05c-.41-.38-1.33-.81-1.56-.63a2.43,2.43,0,0,0-.76,1.69c-.07,1.91.06,3.84,0,5.76a4.7,4.7,0,0,1-3.6,4.65c-1.74.45-3.46,1-5.17,1.51a1.41,1.41,0,0,0-.88,2.32,38.85,38.85,0,0,0,8.09,9.43A57.84,57.84,0,0,0,104.5,239,67.86,67.86,0,0,0,118,243.14C122.67,244.08,127.53,244.31,131.82,244.79Zm7.05-219.38a28.85,28.85,0,0,0-15.77,3.74c-2.57,1.37-5.06,2.89-7.54,4.41a32.36,32.36,0,0,0-3.69,2.67c-.38.32-.75,1.17-.58,1.49a2.12,2.12,0,0,0,1.52.74c1.87.17,3.74.24,5.62.28A41.12,41.12,0,0,1,128,40.4c2.73.73,5.58,1.18,8.14,2.3,4.65,2,9.05,4.57,13.69,6.58a25.85,25.85,0,0,0,8.11,2.23A19.78,19.78,0,0,0,170.23,48a58.06,58.06,0,0,0,5.81-4.6,1.72,1.72,0,0,0,.5-1.54,2.08,2.08,0,0,0-1.44-1,24.57,24.57,0,0,1-6.32-1.71,19.65,19.65,0,0,1-6.62-4.2c-2.65-2.71-5.37-5.29-9-6.61a64.28,64.28,0,0,0-8.07-2.5A41.32,41.32,0,0,0,138.87,25.41ZM65,94.2a20.46,20.46,0,0,0,0,3.23c.35,2.2.83,4.38,1.33,6.55.08.33.58.55.88.82.27-.3.65-.56.77-.92a4.89,4.89,0,0,0,.15-1.54,64.22,64.22,0,0,1,1.26-14.27c.93-4.12,2-8.17,3.23-12.22a58.38,58.38,0,0,1,5.29-12.28c3.94-7,8.7-13.3,15.37-18,.41-.29.9-1,.82-1.38-.14-.81-.95-.77-1.67-.71a20.58,20.58,0,0,0-9.35,3.75,24.46,24.46,0,0,0-8.67,9.86c-1.75,3.57-2.24,7.49-3,11.3a61.18,61.18,0,0,1-4.08,13.35A25.44,25.44,0,0,0,65,94.2Zm136.91-2.07C201.5,87,200.8,82.24,198.06,78a52.4,52.4,0,0,1-5.24-11.65c-1.15-3.31-2.2-6.67-3.54-9.9a16.46,16.46,0,0,0-5.95-7.36,2.46,2.46,0,0,0-3.61.49c-.79.92-.6,1.8.49,3a60.61,60.61,0,0,1,9,13c1.55,3.11,3,6.27,4.3,9.49a62.74,62.74,0,0,1,4,13.14c.36,2.24,1,4.45,1.31,6.69.22,1.37.08,2.8.26,4.18.07.53.57,1,.87,1.51.32-.43.84-.82.92-1.29C201.27,96.85,201.58,94.35,201.88,92.13Z" />
            <path class="cls-1"
                d="M192.51,111.45c0,3.75.09,7.52,0,11.27-.06,1.78.78,2.89,2.67,1.77a18.71,18.71,0,0,1,4.83-2.06c3.22-.81,5.78.68,7.87,3a10.44,10.44,0,0,1,2.12,3.32c1.37,3.84,2.41,7.64,1.15,11.9a35.82,35.82,0,0,1-5,11,12.38,12.38,0,0,1-5.9,4.54,4.74,4.74,0,0,1-3-.12,20.3,20.3,0,0,1-3.58-1.92c-1.56-.94-2.55-.46-2.84,1.37-.14.9-.44,1.77-.66,2.66-.32,1.24-.63,2.47-.93,3.71-.11.47-.12,1-.26,1.42-2,6.11-3.68,12.3-6.39,18.15a56.44,56.44,0,0,1-21,24.21,53.87,53.87,0,0,1-13,6.25A63.4,63.4,0,0,1,137.6,214a50,50,0,0,1-7.55.06c-4.45-.1-8.61-1.49-12.8-2.87a49.37,49.37,0,0,1-12.76-6.49,54.4,54.4,0,0,1-17-18.6,80.53,80.53,0,0,1-6.78-16.22c-1.09-3.75-2.08-7.53-3.13-11.29-.37-1.35-.78-2.68-1.21-4a1.6,1.6,0,0,0-2.32-1.16,16.09,16.09,0,0,0-1.79.94,5.8,5.8,0,0,1-6.46-.23c-3.84-2.57-6.06-6.35-7.9-10.46a23,23,0,0,1-1.46-13.4c.76-4.54,3.32-8,7.91-9.1a5.91,5.91,0,0,1,3.25.24c1.61.56,3.09,1.48,4.64,2.2a2.82,2.82,0,0,0,1.56.4c1-.22,1.11-1,1.1-2-.08-7.23-.3-14.47-.08-21.7a63.93,63.93,0,0,1,1.63-11.74c2.36-10.48,5.92-20.5,12.66-29.08a48.17,48.17,0,0,1,16.76-13.69,5.65,5.65,0,0,1,2.43-.52c3.19,0,6.4.07,9.58.36A41,41,0,0,1,124.35,47a76.58,76.58,0,0,1,10,2.86c4.16,1.69,8.14,3.84,12.16,5.87A27.25,27.25,0,0,0,160,58.6a25.16,25.16,0,0,0,10.65-2.86c1.48-.74,2.15-.73,3.29.53a60.18,60.18,0,0,1,10.43,15.59,91.22,91.22,0,0,1,3.88,9.78c1.13,3.48,1.87,7.09,2.75,10.65.28,1.16.52,2.34.73,3.52a34.9,34.9,0,0,1,.72,4.84c.11,3.6,0,7.2,0,10.8Zm-58.93,29.13a49.94,49.94,0,0,0-3.37-20.77,21.83,21.83,0,0,0-5.29-7.62,23.27,23.27,0,0,0-11.74-5.61,24.83,24.83,0,0,0-12.91.45,10.49,10.49,0,0,1-2.21.47c-2.91.34-5.49,1.64-8.13,2.73a4.75,4.75,0,0,0-1.35,1,3.31,3.31,0,0,0-.45,4.45,3.27,3.27,0,0,0,4.16,1.38l4.91-1.88a31,31,0,0,1,13.45-1.56,16.24,16.24,0,0,1,8,2.65c4,2.66,5.62,6.74,6.56,11.07a57.84,57.84,0,0,1,1.25,11.06,99.23,99.23,0,0,1-.75,10.86c-.25,2.9-.5,5.8-.94,8.68-.33,2.2.2,4,2.27,4.86s4.36,1.91,6.86,2a20.92,20.92,0,0,0,8.5-1.73,3.84,3.84,0,0,0,2.57-2.94c.41-2.34-1.53-4.08-4.17-3.7-1.5.22-3,.67-4.47.88a7.77,7.77,0,0,1-2.72-.11c-1.14-.26-1.52-1.13-1.27-2.29a36.21,36.21,0,0,0,.83-4.47C133.38,147.14,133.45,143.86,133.58,140.58Zm25.13-34.83-.05.37a30.91,30.91,0,0,0-17.41,5,5.79,5.79,0,0,0-1.75,1.93,2.85,2.85,0,0,0-.32,1.91,3.58,3.58,0,0,0,4.65,2.57,15,15,0,0,0,1.94-.93c1.81-.83,3.55-2,5.45-2.38a36.76,36.76,0,0,1,8.94-.68c3.59.2,7.27.19,10.69,1.77a50,50,0,0,0,5.3,1.8c1.67.55,3.28-.18,4.31-1.94a2.81,2.81,0,0,0-.81-3.93,11,11,0,0,0-3.43-1.84q-4.53-1.35-9.15-2.31C164.31,106.53,161.5,106.19,158.71,105.75Zm-23.77,80.64a49.57,49.57,0,0,0,5.73-.5,24.56,24.56,0,0,0,5.35-1.72,23.28,23.28,0,0,0,7.57-4.75,2.83,2.83,0,0,0,.44-3.9c-1.32-2-3-2.46-5-1.18a33.46,33.46,0,0,1-9.13,4.39,17.23,17.23,0,0,1-8.86.39,27,27,0,0,1-10.1-4.81,2.83,2.83,0,0,0-3.55-.18c-1.34.9-2.3,2.1-1.78,3.71a5.56,5.56,0,0,0,2,2.7,43.5,43.5,0,0,0,6.17,3.65,22.61,22.61,0,0,0,5.44,1.76A47.59,47.59,0,0,0,134.94,186.39Zm-30.47-64.23c-.76,0-1.52.06-2.28.13A6.71,6.71,0,0,0,96,129.45c.14,3.36,3.55,7.12,6.69,7.55,4.66.65,7.53-2.16,9-5.32a6.55,6.55,0,0,0-1.48-7.49A7.51,7.51,0,0,0,104.47,122.16Zm59.18-.29-.09.29c-.83.07-1.68.07-2.5.2a6.46,6.46,0,0,0-5.42,6.75,8.38,8.38,0,0,0,4,6.77,7.67,7.67,0,0,0,11.27-3.64c1.4-3.5.93-7.28-2.47-9A23.82,23.82,0,0,0,163.65,121.87Z" />
            <path class="cls-1"
                d="M131.82,244.79c-4.29-.48-9.15-.71-13.86-1.65A67.86,67.86,0,0,1,104.5,239a57.84,57.84,0,0,1-13.88-8.44,38.85,38.85,0,0,1-8.09-9.43,1.41,1.41,0,0,1,.88-2.32c1.71-.54,3.43-1.06,5.17-1.51a4.7,4.7,0,0,0,3.6-4.65c0-1.92-.08-3.85,0-5.76a2.43,2.43,0,0,1,.76-1.69c.23-.18,1.15.25,1.56.63a56.49,56.49,0,0,0,15.23,10.05,47,47,0,0,0,5.74,2.4,72.54,72.54,0,0,0,9.15,2.21,50.54,50.54,0,0,0,10,.92,59.57,59.57,0,0,0,13.47-2A65.29,65.29,0,0,0,161,214.26a55.29,55.29,0,0,0,11.67-8.14,8.79,8.79,0,0,1,1.21-1,1.09,1.09,0,0,1,1.79,1c0,1.8-.1,3.6-.09,5.39a13.4,13.4,0,0,0,.26,3,3.49,3.49,0,0,0,2.75,2.7c1.31.34,2.62.69,3.91,1.13s1.6,1.14.87,2.35a40.87,40.87,0,0,1-15.79,15,81.2,81.2,0,0,1-8,4c-2.38,1-5,1.46-7.39,2.34-4.39,1.59-9.05,1.47-13.55,2.28A66.17,66.17,0,0,1,131.82,244.79Z" />
            <path class="cls-1"
                d="M138.87,25.41a41.32,41.32,0,0,1,6.22.4,64.28,64.28,0,0,1,8.07,2.5c3.63,1.32,6.35,3.9,9,6.61a19.65,19.65,0,0,0,6.62,4.2,24.57,24.57,0,0,0,6.32,1.71,2.08,2.08,0,0,1,1.44,1,1.72,1.72,0,0,1-.5,1.54,58.06,58.06,0,0,1-5.81,4.6,19.78,19.78,0,0,1-12.33,3.55,25.85,25.85,0,0,1-8.11-2.23c-4.64-2-9-4.58-13.69-6.58-2.56-1.12-5.41-1.57-8.14-2.3a41.12,41.12,0,0,0-9.53-1.66c-1.88,0-3.75-.11-5.62-.28a2.12,2.12,0,0,1-1.52-.74c-.17-.32.2-1.17.58-1.49a32.36,32.36,0,0,1,3.69-2.67c2.48-1.52,5-3,7.54-4.41A28.85,28.85,0,0,1,138.87,25.41Z" />
            <path class="cls-1"
                d="M65,94.2a25.44,25.44,0,0,1,2.41-12.44,61.18,61.18,0,0,0,4.08-13.35c.71-3.81,1.2-7.73,3-11.3a24.46,24.46,0,0,1,8.67-9.86,20.58,20.58,0,0,1,9.35-3.75c.72-.06,1.53-.1,1.67.71.08.4-.41,1.09-.82,1.38-6.67,4.68-11.43,11-15.37,18a58.38,58.38,0,0,0-5.29,12.28c-1.21,4.05-2.3,8.1-3.23,12.22a64.22,64.22,0,0,0-1.26,14.27,4.89,4.89,0,0,1-.15,1.54c-.12.36-.5.62-.77.92-.3-.27-.8-.49-.88-.82-.5-2.17-1-4.35-1.33-6.55A20.46,20.46,0,0,1,65,94.2Z" />
            <path class="cls-1"
                d="M201.88,92.13c-.3,2.22-.61,4.72-1,7.2-.08.47-.6.86-.92,1.29-.3-.5-.8-1-.87-1.51-.18-1.38,0-2.81-.26-4.18-.35-2.24-.95-4.45-1.31-6.69a62.74,62.74,0,0,0-4-13.14c-1.28-3.22-2.75-6.38-4.3-9.49a60.61,60.61,0,0,0-9-13c-1.09-1.25-1.28-2.13-.49-3a2.46,2.46,0,0,1,3.61-.49,16.46,16.46,0,0,1,5.95,7.36c1.34,3.23,2.39,6.59,3.54,9.9A52.4,52.4,0,0,0,198.06,78C200.8,82.24,201.5,87,201.88,92.13Z" />
            <path
                d="M133.58,140.58c-.13,3.28-.2,6.56-.43,9.82a36.21,36.21,0,0,1-.83,4.47c-.25,1.16.13,2,1.27,2.29a7.77,7.77,0,0,0,2.72.11c1.5-.21,3-.66,4.47-.88,2.64-.38,4.58,1.36,4.17,3.7a3.84,3.84,0,0,1-2.57,2.94,20.92,20.92,0,0,1-8.5,1.73c-2.5-.06-4.67-1.07-6.86-2s-2.6-2.66-2.27-4.86c.44-2.88.69-5.78.94-8.68a99.23,99.23,0,0,0,.75-10.86,57.84,57.84,0,0,0-1.25-11.06c-.94-4.33-2.61-8.41-6.56-11.07a16.24,16.24,0,0,0-8-2.65,31,31,0,0,0-13.45,1.56l-4.91,1.88a3.27,3.27,0,0,1-4.16-1.38,3.31,3.31,0,0,1,.45-4.45,4.75,4.75,0,0,1,1.35-1c2.64-1.09,5.22-2.39,8.13-2.73a10.49,10.49,0,0,0,2.21-.47,24.83,24.83,0,0,1,12.91-.45,23.27,23.27,0,0,1,11.74,5.61,21.83,21.83,0,0,1,5.29,7.62A49.94,49.94,0,0,1,133.58,140.58Z" />
            <path
                d="M158.71,105.75c2.79.44,5.6.78,8.36,1.36q4.62,1,9.15,2.31a11,11,0,0,1,3.43,1.84,2.81,2.81,0,0,1,.81,3.93c-1,1.76-2.64,2.49-4.31,1.94a50,50,0,0,1-5.3-1.8c-3.42-1.58-7.1-1.57-10.69-1.77a36.76,36.76,0,0,0-8.94.68c-1.9.36-3.64,1.55-5.45,2.38a15,15,0,0,1-1.94.93,3.58,3.58,0,0,1-4.65-2.57,2.85,2.85,0,0,1,.32-1.91,5.79,5.79,0,0,1,1.75-1.93,30.91,30.91,0,0,1,17.41-5Z" />
            <path
                d="M134.94,186.39a47.59,47.59,0,0,1-5.75-.44,22.61,22.61,0,0,1-5.44-1.76,43.5,43.5,0,0,1-6.17-3.65,5.56,5.56,0,0,1-2-2.7c-.52-1.61.44-2.81,1.78-3.71a2.83,2.83,0,0,1,3.55.18,27,27,0,0,0,10.1,4.81,17.23,17.23,0,0,0,8.86-.39,33.46,33.46,0,0,0,9.13-4.39c2-1.28,3.69-.79,5,1.18a2.83,2.83,0,0,1-.44,3.9,23.28,23.28,0,0,1-7.57,4.75,24.56,24.56,0,0,1-5.35,1.72A49.57,49.57,0,0,1,134.94,186.39Z" />
            <path
                d="M104.47,122.16a7.51,7.51,0,0,1,5.71,2,6.55,6.55,0,0,1,1.48,7.49c-1.44,3.16-4.31,6-9,5.32-3.14-.43-6.55-4.19-6.69-7.55a6.71,6.71,0,0,1,6.19-7.16C103,122.22,103.71,122.2,104.47,122.16Z" />
            <path
                d="M163.65,121.87a23.82,23.82,0,0,1,4.75,1.34c3.4,1.75,3.87,5.53,2.47,9a7.67,7.67,0,0,1-11.27,3.64,8.38,8.38,0,0,1-4-6.77,6.46,6.46,0,0,1,5.42-6.75c.82-.13,1.67-.13,2.5-.2Z" />
        </g>
    </g>
</svg>