<svg xmlns="http://www.w3.org/2000/svg" viewBox="0 0 255.6 291.36"><defs><style>.cls-1{fill:#fff;}</style></defs><g id="Layer_2" data-name="Layer 2"><g id="Layer_1-2" data-name="Layer 1"><path d="M163.71,211.53c0,4.92,0,9.84,0,14.76a2.76,2.76,0,0,0,1.73,2.74,13,13,0,0,0,1.77.74c2.64.77,5.31,1.45,7.93,2.27,2.32.73,4.6,1.58,6.88,2.42,3.48,1.29,7,2.56,10.41,3.94,3.14,1.26,6.29,2.54,9.33,4,4.77,2.34,9.57,4.66,14.12,7.38s8.87,5.84,13.15,9c2.51,1.85,2.1,4.9-.56,6.24-1.41.7-2.56.1-3.67-.66-3.22-2.23-6.33-4.63-9.65-6.69-3.63-2.25-7.37-4.35-11.19-6.26-4.42-2.21-8.94-4.24-13.5-6.17-3.41-1.44-6.94-2.59-10.41-3.89-.63-.24-1.23-.58-1.83-.88a2,2,0,0,0-3.15,1.06A45.67,45.67,0,0,1,160,259.09a54.5,54.5,0,0,1-12.36,6.56c-2.88,1.1-6,1.53-9,2.49a29.19,29.19,0,0,1-9.46,1.21c-2.56,0-5.12,0-7.68,0a16,16,0,0,1-3.47-.24c-3.33-.75-6.7-1.46-9.94-2.53a63,63,0,0,1-9.61-4,46.64,46.64,0,0,1-20.2-19.87c-.73-1.39-1.65-1.9-3.15-1.43-2.28.73-4.53,1.53-6.75,2.44-3.54,1.45-7.11,2.88-10.55,4.55-4.67,2.26-9.35,4.55-13.81,7.2s-8.36,5.59-12.52,8.42c-.36.25-.71.52-1.09.74A3.55,3.55,0,0,1,25,262.55a2.85,2.85,0,0,1,.32-2.12A11,11,0,0,1,27.68,258a113.65,113.65,0,0,1,21.23-13.22c5.48-2.61,11-5.12,16.59-7.48,3.6-1.51,7.35-2.65,11-3.95,2.47-.88,5-1.76,7.43-2.61.64-.22,1.32-.32,2-.52a31.79,31.79,0,0,0,3.6-1.23,2.67,2.67,0,0,0,1.6-2.7c0-9.6,0-19.2.05-28.8a6.33,6.33,0,0,0-2-4.77c-3.08-3.19-6.2-6.36-9-9.75a81.93,81.93,0,0,1-12.68-21.24c-.74-1.76-1.3-3.6-1.91-5.42a2.15,2.15,0,0,0-2.12-1.76c-6.62,0-11.58-3.13-15.48-8.21a26.29,26.29,0,0,1-4.16-8.56,23.35,23.35,0,0,1-1.09-10.52c1.08-6.88,3.91-12.74,10.44-16.15,1.44-.75,1.65-1.28,1.13-2.8A47.92,47.92,0,0,1,51.37,91.1a33.57,33.57,0,0,1,3.54-14.43c1.23-2.37.9-5,.85-7.55-.09-4.44-.44-8.87-.52-13.31a23.22,23.22,0,0,1,.5-6.07,17.78,17.78,0,0,1,2.35-4.94A27.49,27.49,0,0,1,70.57,34.3c1.74-.77,3.64-1.2,5.4-1.95a6.27,6.27,0,0,0,2.54-1.83C82.9,24.59,88.67,20.43,95.11,17a46.8,46.8,0,0,1,12-4.08,19.66,19.66,0,0,1,11.13.46c.71.26,1.47.38,2.19.61,2.92.94,5.85,1.85,8.75,2.85,5.35,1.84,10.55,4.17,16.24,4.85a11.81,11.81,0,0,0,3.8-.14c3.05-.65,6-1.69,9.08-2.17a23.38,23.38,0,0,1,11,.53c6.3,2,10.45,6.57,14.32,11.55a23.82,23.82,0,0,0,6.21,6.09,4.5,4.5,0,0,0,4.54.22,9.7,9.7,0,0,1,3.21-.83,3.28,3.28,0,0,1,3.57,3.36,29.57,29.57,0,0,1-1,9.26,27.76,27.76,0,0,0-.66,3.29c-.13.66-.24,1.33-.41,2-.73,2.7-1.55,5.37-2.19,8.09s.31,5.39,1.69,7.66a33.5,33.5,0,0,1,3.81,10,33.47,33.47,0,0,1,.34,7.17,30.71,30.71,0,0,1-1,9.13c-.92,3.17-1.5,6.44-2.25,9.67a11,11,0,0,1-.6,1.81c-.74,1.76-.43,2.42,1.33,3.26a28.72,28.72,0,0,1,4.9,2.7,19.32,19.32,0,0,1,6.09,8.72,27.41,27.41,0,0,1,1.53,10,24,24,0,0,1-2.06,9.3,21.82,21.82,0,0,1-10.24,11.48,15.48,15.48,0,0,1-8,1.43c-1.8-.06-2.22.3-2.83,2.05a79.87,79.87,0,0,1-10.28,20.1c-3.53,5-7.11,9.93-11.77,13.87-2.84,2.39-4.09,5-3.79,8.68s.07,7.68.07,11.52ZM50.06,130.12c.06,3.3.41,6.51,2.07,9.49,1.43,2.57,3.09,4.93,5.71,6.32a9,9,0,0,0,9.35-.22c1.78-1.08,2.71-.8,3.21.92.91,3.1,1.64,6.26,2.75,9.29a96.81,96.81,0,0,0,4.43,10.32A82.59,82.59,0,0,0,89.48,183a47.53,47.53,0,0,0,14.31,11.33,80.55,80.55,0,0,0,9.09,3.65,46.43,46.43,0,0,0,13.26,2.34c5.67.29,11.16-.85,16.6-2.42a47.62,47.62,0,0,0,13.75-6.62A59,59,0,0,0,170.69,177a79,79,0,0,0,8.47-13.48c1.06-2.32,2.07-4.68,2.9-7.09,1-2.93,1.89-5.91,2.66-8.92.48-1.88,1.1-2.29,2.84-1.37a20.6,20.6,0,0,0,3.58,1.91c3.79,1.14,7.1-.28,10.18-3.92a18.84,18.84,0,0,0,3.79-8.68,16.07,16.07,0,0,0-4-15,7,7,0,0,0-7.2-2.2,20.79,20.79,0,0,0-4.23,1.6c-1.85.89-2.84.36-2.94-1.66-.13-2.76-.18-5.53-.52-8.26-.36-2.89-1-5.74-1.56-8.6a11.55,11.55,0,0,0-.35-1.28c-1-3.16-1.84-6.36-2.93-9.49-.84-2.4-1.91-4.73-3-7.07a1.72,1.72,0,0,0-2.13-1.1,41.06,41.06,0,0,1-11.33.85,45,45,0,0,1-12.8-2.79,13.58,13.58,0,0,0-4-1c-4.59-.09-9.2-.21-13.78.15a69.28,69.28,0,0,0-12.14,2c-4,1.05-8.14,1.17-12.2,1.71a30.16,30.16,0,0,1-4.39.57c-2.18,0-4.35-.4-6.53-.63A23.9,23.9,0,0,1,83.83,76c-1.46-1.54-2.46-1.51-3.37.39q-3,6.3-5.84,12.73a44.41,44.41,0,0,0-1.83,5.43,67.25,67.25,0,0,0-2.46,9.23c-.66,4.7-2.12,9.3-1.85,14.12a1.41,1.41,0,0,1-2,1.35,10.62,10.62,0,0,1-2.06-.94c-3.73-2.22-8.69-2.09-11.84,2.38A15.23,15.23,0,0,0,50.06,130.12ZM167.85,76.3A17,17,0,0,0,175.67,75a20.46,20.46,0,0,0,8.61-6,34.46,34.46,0,0,0,6.19-11.3c1.1-3.41,2.53-6.73,2.74-10.38.08-1.43-.48-2.11-1.93-2.06a8.56,8.56,0,0,1-4.46-1.12,24.3,24.3,0,0,1-7.2-6.22c-2.23-2.61-4.4-5.3-6.83-7.72a13.25,13.25,0,0,0-11.38-3.89A29.32,29.32,0,0,0,155,27.65c-4.14,1.5-8.35,1.16-12.57.92A9.84,9.84,0,0,1,140,28c-2.66-.84-5.31-1.69-8-2.58-1.35-.46-2.67-1-4-1.52-2.37-.84-4.73-1.68-7.11-2.48a26.28,26.28,0,0,0-10.24-1.53,32.6,32.6,0,0,0-12.56,3.62C90.23,27.55,84,33,80.69,41.43a9.35,9.35,0,0,0-.18,7,31.29,31.29,0,0,0,4.6,8.38c2.93,3.7,6.51,6.7,11,7.9a17.84,17.84,0,0,0,17.58-4.37A18.12,18.12,0,0,1,116,58.44,3.37,3.37,0,0,1,121,62.71a4.88,4.88,0,0,1-1.06,1.58,40.56,40.56,0,0,1-3.43,3A26.84,26.84,0,0,1,101,72.84a20.61,20.61,0,0,1-9.86-2.59,22.69,22.69,0,0,0-2.17-1,4.09,4.09,0,0,0-1.3,0,3.65,3.65,0,0,0,.36,1.25,7.87,7.87,0,0,0,1.61,1.6c3.59,2.62,7.48,4.47,12.06,4.36,4.07-.09,8.16-.09,12.22-.42a70.45,70.45,0,0,0,8.21-1.51c1.76-.36,3.46-1,5.23-1.26,3.95-.57,7.92-1,11.89-1.45,5.32-.6,10.42.5,15.47,2C159,75,163.16,76.7,167.85,76.3ZM156.91,216.61h0c0-4.64-.09-9.28,0-13.92.06-2.21-1.12-2.92-3-1.77a2.91,2.91,0,0,1-.42.23c-3.39,1.39-6.68,3.13-10.19,4.1a49.77,49.77,0,0,1-15.62,2c-4.34-.2-8.72.11-12.92-1.42a15.28,15.28,0,0,0-2.36-.38,6.78,6.78,0,0,1-1.63-.37c-3.44-1.48-6.88-3-10.29-4.5-1.85-.84-2.59-.41-2.59,1.64q0,14.22,0,28.44A4,4,0,0,1,94.68,235c-2.34.65-4.7,1.28-7,2a7.67,7.67,0,0,0-1.85.82,1.73,1.73,0,0,0-.67,2.73A40.66,40.66,0,0,0,95.18,252a48.65,48.65,0,0,0,15.93,8.08c2.53.72,5.09,1,7.6,1.53a31.12,31.12,0,0,0,11.55.61c3.64-.53,7.4-.61,10.9-2,2.58-1.06,5.34-1.69,7.85-2.87a43.55,43.55,0,0,0,9.47-6.06,42.71,42.71,0,0,0,9.58-11.42c.83-1.46.42-2.58-1.09-3-2.06-.58-4.14-1.15-6.22-1.66-2.88-.71-3.81-1.79-3.83-4.78C156.88,225.81,156.91,221.21,156.91,216.61ZM58.66,92.43l-.37,0c.39,2.6.74,5.2,1.16,7.79.23,1.37.57,2.72.85,4.08.06.27,0,.61.16.81a2.63,2.63,0,0,0,1,1c.25.09.8-.3,1-.62a3.4,3.4,0,0,0,.65-1.51,47.77,47.77,0,0,1,2-9c1.35-3.87,2.39-7.87,3.93-11.66A73.8,73.8,0,0,1,76.31,69.6a4,4,0,0,0,.38-4.1,54.21,54.21,0,0,1-3.81-11.93,19.15,19.15,0,0,1,.06-9.83c.23-.7.49-1.56-.36-1.87a2.29,2.29,0,0,0-1.92.31,44.93,44.93,0,0,0-5,4.44c-1.74,1.89-3.42,4.07-3.46,6.7a68.74,68.74,0,0,0,.74,11.56,26.73,26.73,0,0,1-1.6,14.93C59.59,83.88,58.12,87.91,58.66,92.43Zm137.28-5.32c-.53-2.88-.88-5.75-1.61-8.51A18.56,18.56,0,0,0,192,73.89c-.79-1.26-1.59-1.19-2.62-.12s-2.28,2.35-3.48,3.46c-1.47,1.37-1.56,2.08-.76,3.9,1.11,2.55,2.14,5.15,3.09,7.77.77,2.1,1.42,4.23,2,6.39.43,1.56.67,3.17,1,4.76.16.76-.32,1.92.85,2.1s1.38-1,1.52-1.81C194.46,96,195.18,91.54,195.94,87.11Z"/><path class="cls-1" d="M50.06,130.12a15.23,15.23,0,0,1,2.52-9.43c3.15-4.47,8.11-4.6,11.84-2.38a10.62,10.62,0,0,0,2.06.94,1.41,1.41,0,0,0,2-1.35c-.27-4.82,1.19-9.42,1.85-14.12a67.25,67.25,0,0,1,2.46-9.23,44.41,44.41,0,0,1,1.83-5.43q2.8-6.42,5.84-12.73c.91-1.9,1.91-1.93,3.37-.39a23.9,23.9,0,0,0,15.23,7.28c2.18.23,4.35.58,6.53.63a30.16,30.16,0,0,0,4.39-.57c4.06-.54,8.17-.66,12.2-1.71a69.28,69.28,0,0,1,12.14-2c4.58-.36,9.19-.24,13.78-.15a13.58,13.58,0,0,1,4,1,45,45,0,0,0,12.8,2.79,41.06,41.06,0,0,0,11.33-.85,1.72,1.72,0,0,1,2.13,1.1c1,2.34,2.11,4.67,3,7.07,1.09,3.13,2,6.33,2.93,9.49a11.55,11.55,0,0,1,.35,1.28c.54,2.86,1.2,5.71,1.56,8.6.34,2.73.39,5.5.52,8.26.1,2,1.09,2.55,2.94,1.66a20.79,20.79,0,0,1,4.23-1.6,7,7,0,0,1,7.2,2.2,16.07,16.07,0,0,1,4,15,18.84,18.84,0,0,1-3.79,8.68c-3.08,3.64-6.39,5.06-10.18,3.92a20.6,20.6,0,0,1-3.58-1.91c-1.74-.92-2.36-.51-2.84,1.37-.77,3-1.65,6-2.66,8.92-.83,2.41-1.84,4.77-2.9,7.09A79,79,0,0,1,170.69,177a59,59,0,0,1-14.2,14.31,47.62,47.62,0,0,1-13.75,6.62c-5.44,1.57-10.93,2.71-16.6,2.42A46.43,46.43,0,0,1,112.88,198a80.55,80.55,0,0,1-9.09-3.65A47.53,47.53,0,0,1,89.48,183a82.59,82.59,0,0,1-11.9-16.78,96.81,96.81,0,0,1-4.43-10.32c-1.11-3-1.84-6.19-2.75-9.29-.5-1.72-1.43-2-3.21-.92a9,9,0,0,1-9.35.22c-2.62-1.39-4.28-3.75-5.71-6.32C50.47,136.63,50.12,133.42,50.06,130.12Zm76,2.41c-.18-5.81-.27-11.57-1.61-17.29-1-4.48-2.47-8.69-5.36-12.28a20.26,20.26,0,0,0-11.83-7,38.91,38.91,0,0,0-13.7-.15,51.62,51.62,0,0,0-7.39,1.89,24.59,24.59,0,0,0-4.39,1.88,4.16,4.16,0,0,0-1.53,1.61,3.16,3.16,0,0,0,.31,3.51,3.51,3.51,0,0,0,4,1.17c2.37-.68,4.68-1.6,7-2.29,5.78-1.69,11.53-2,17.22.44a11.23,11.23,0,0,1,5.09,3.85,22.67,22.67,0,0,1,4,11.27c.07.87.18,1.75.26,2.62a57.87,57.87,0,0,1,.7,7.62c-.27,6.95-.74,13.88-1.28,20.81-.16,2,.23,3.78,1.78,4.94a18.17,18.17,0,0,0,4.84,2.48c2.67.92,5.27.19,7.8-.87,2-.81,3-2.37,2.5-4.19-.53-2.16-1.73-2.94-4.09-2.62-1,.14-2.05.4-3.08.48a2.09,2.09,0,0,1-2.39-2.82,11.13,11.13,0,0,0,.36-1.88C125.53,141.3,125.77,136.92,126,132.53ZM128,179.31c2.27-.5,4.65-1,7-1.55a23.42,23.42,0,0,0,11.32-6.37,4.49,4.49,0,0,0,1.1-2.31c.24-1.61-.68-2.72-2-3.5s-2.48-.29-3.51.57c-4.83,4-10.29,6-16.62,5.2a10.8,10.8,0,0,1-3.15-.59c-2.08-1-4.06-2.19-6.06-3.35-.78-.46-1.44-1.14-2.23-1.6a3,3,0,0,0-4.08.68,3,3,0,0,0-.44,4.13,8.12,8.12,0,0,0,1.6,1.76,26.91,26.91,0,0,0,3.91,2.77,55.9,55.9,0,0,0,6,2.61,20.49,20.49,0,0,0,3,.69ZM155.14,95c-2.3.3-4.48.56-6.65.89a19.48,19.48,0,0,0-10.18,5,3.22,3.22,0,0,0-.33,4.54c1.41,1.79,2.64,2,4.55.87.45-.27.92-.5,1.34-.8,5.44-3.84,11.53-3.65,17.63-2.58,2.67.47,5.21,1.71,7.82,2.55,1.45.46,3,.92,4.42.12a3.09,3.09,0,0,0,1.6-3,3.52,3.52,0,0,0-2.24-3.28c-1.95-.8-4-1.38-5.94-2.2C163.26,95.44,159.08,95.74,155.14,95Zm-6.4,26.68c-.42,4.9,4.83,8.55,8,8.43a8.9,8.9,0,0,0,8.14-8.57,8.27,8.27,0,0,0-8.23-8A7.87,7.87,0,0,0,148.74,121.7ZM97,130.11a8.33,8.33,0,0,0,8-8.51,7.91,7.91,0,0,0-7.76-8.09,7.81,7.81,0,0,0-8.16,8.1A8.29,8.29,0,0,0,97,130.11Z"/><path class="cls-1" d="M167.85,76.3c-4.69.4-8.85-1.26-13.09-2.5-5-1.49-10.15-2.59-15.47-2-4,.45-7.94.88-11.89,1.45-1.77.26-3.47.9-5.23,1.26A70.45,70.45,0,0,1,114,76c-4.06.33-8.15.33-12.22.42-4.58.11-8.47-1.74-12.06-4.36a7.87,7.87,0,0,1-1.61-1.6,3.65,3.65,0,0,1-.36-1.25,4.09,4.09,0,0,1,1.3,0,22.69,22.69,0,0,1,2.17,1A20.61,20.61,0,0,0,101,72.84a26.84,26.84,0,0,0,15.42-5.56,40.56,40.56,0,0,0,3.43-3A4.88,4.88,0,0,0,121,62.71,3.37,3.37,0,0,0,116,58.44a18.12,18.12,0,0,0-2.29,1.91,17.84,17.84,0,0,1-17.58,4.37c-4.52-1.2-8.1-4.2-11-7.9a31.29,31.29,0,0,1-4.6-8.38,9.35,9.35,0,0,1,.18-7C84,33,90.23,27.55,98.08,23.55a32.6,32.6,0,0,1,12.56-3.62,26.28,26.28,0,0,1,10.24,1.53c2.38.8,4.74,1.64,7.11,2.48,1.35.49,2.67,1.06,4,1.52,2.64.89,5.29,1.74,8,2.58a9.84,9.84,0,0,0,2.45.53c4.22.24,8.43.58,12.57-.92a29.32,29.32,0,0,1,6.43-1.42,13.25,13.25,0,0,1,11.38,3.89c2.43,2.42,4.6,5.11,6.83,7.72a24.3,24.3,0,0,0,7.2,6.22,8.56,8.56,0,0,0,4.46,1.12c1.45,0,2,.63,1.93,2.06-.21,3.65-1.64,7-2.74,10.38a34.46,34.46,0,0,1-6.19,11.3,20.46,20.46,0,0,1-8.61,6A17,17,0,0,1,167.85,76.3Z"/><path class="cls-1" d="M156.91,216.61c0,4.6,0,9.2,0,13.8,0,3,1,4.07,3.83,4.78,2.08.51,4.16,1.08,6.22,1.66,1.51.43,1.92,1.55,1.09,3a42.71,42.71,0,0,1-9.58,11.42,43.55,43.55,0,0,1-9.47,6.06c-2.51,1.18-5.27,1.81-7.85,2.87-3.5,1.43-7.26,1.51-10.9,2a31.12,31.12,0,0,1-11.55-.61c-2.51-.57-5.07-.81-7.6-1.53A48.65,48.65,0,0,1,95.18,252a40.66,40.66,0,0,1-10.05-11.49,1.73,1.73,0,0,1,.67-2.73,7.67,7.67,0,0,1,1.85-.82c2.33-.68,4.69-1.31,7-2A4,4,0,0,0,98,230.7q0-14.22,0-28.44c0-2,.74-2.48,2.59-1.64,3.41,1.54,6.85,3,10.29,4.5a6.78,6.78,0,0,0,1.63.37,15.28,15.28,0,0,1,2.36.38c4.2,1.53,8.58,1.22,12.92,1.42a49.77,49.77,0,0,0,15.62-2c3.51-1,6.8-2.71,10.19-4.1a2.91,2.91,0,0,0,.42-.23c1.86-1.15,3-.44,3,1.77-.13,4.64,0,9.28,0,13.92Z"/><path class="cls-1" d="M58.66,92.43c-.54-4.52.93-8.55,2.68-12.62a26.73,26.73,0,0,0,1.6-14.93,68.74,68.74,0,0,1-.74-11.56c0-2.63,1.72-4.81,3.46-6.7a44.93,44.93,0,0,1,5-4.44,2.29,2.29,0,0,1,1.92-.31c.85.31.59,1.17.36,1.87a19.15,19.15,0,0,0-.06,9.83A54.21,54.21,0,0,0,76.69,65.5a4,4,0,0,1-.38,4.1,73.8,73.8,0,0,0-7.19,13.79c-1.54,3.79-2.58,7.79-3.93,11.66a47.77,47.77,0,0,0-2,9,3.4,3.4,0,0,1-.65,1.51c-.23.32-.78.71-1,.62a2.63,2.63,0,0,1-1-1c-.15-.2-.1-.54-.16-.81-.28-1.36-.62-2.71-.85-4.08-.42-2.59-.77-5.19-1.16-7.79Z"/><path class="cls-1" d="M195.94,87.11c-.76,4.43-1.48,8.84-2.31,13.23-.14.77-.34,2-1.52,1.81s-.69-1.34-.85-2.1c-.33-1.59-.57-3.2-1-4.76-.59-2.16-1.24-4.29-2-6.39-.95-2.62-2-5.22-3.09-7.77-.8-1.82-.71-2.53.76-3.9,1.2-1.11,2.34-2.29,3.48-3.46s1.83-1.14,2.62.12a18.56,18.56,0,0,1,2.31,4.71C195.06,81.36,195.41,84.23,195.94,87.11Z"/><path d="M126,132.53c-.25,4.39-.49,8.77-.77,13.16a11.13,11.13,0,0,1-.36,1.88,2.09,2.09,0,0,0,2.39,2.82c1-.08,2.05-.34,3.08-.48,2.36-.32,3.56.46,4.09,2.62.45,1.82-.54,3.38-2.5,4.19-2.53,1.06-5.13,1.79-7.8.87a18.17,18.17,0,0,1-4.84-2.48c-1.55-1.16-1.94-2.91-1.78-4.94.54-6.93,1-13.86,1.28-20.81a57.87,57.87,0,0,0-.7-7.62c-.08-.87-.19-1.75-.26-2.62a22.67,22.67,0,0,0-4-11.27,11.23,11.23,0,0,0-5.09-3.85c-5.69-2.43-11.44-2.13-17.22-.44-2.36.69-4.67,1.61-7,2.29a3.51,3.51,0,0,1-4-1.17,3.16,3.16,0,0,1-.31-3.51,4.16,4.16,0,0,1,1.53-1.61,24.59,24.59,0,0,1,4.39-1.88,51.62,51.62,0,0,1,7.39-1.89,38.91,38.91,0,0,1,13.7.15,20.26,20.26,0,0,1,11.83,7c2.89,3.59,4.31,7.8,5.36,12.28C125.75,121,125.84,126.72,126,132.53Z"/><path d="M128,179.31l-4.15-.86a20.49,20.49,0,0,1-3-.69,55.9,55.9,0,0,1-6-2.61,26.91,26.91,0,0,1-3.91-2.77,8.12,8.12,0,0,1-1.6-1.76,3,3,0,0,1,.44-4.13,3,3,0,0,1,4.08-.68c.79.46,1.45,1.14,2.23,1.6,2,1.16,4,2.36,6.06,3.35a10.8,10.8,0,0,0,3.15.59c6.33.83,11.79-1.16,16.62-5.2,1-.86,2.18-1.35,3.51-.57s2.26,1.89,2,3.5a4.49,4.49,0,0,1-1.1,2.31A23.42,23.42,0,0,1,135,177.76C132.61,178.34,130.23,178.81,128,179.31Z"/><path d="M155.14,95c3.94.72,8.12.42,12,2.06,1.94.82,4,1.4,5.94,2.2a3.52,3.52,0,0,1,2.24,3.28,3.09,3.09,0,0,1-1.6,3c-1.47.8-3,.34-4.42-.12-2.61-.84-5.15-2.08-7.82-2.55-6.1-1.07-12.19-1.26-17.63,2.58-.42.3-.89.53-1.34.8-1.91,1.15-3.14.92-4.55-.87a3.22,3.22,0,0,1,.33-4.54,19.48,19.48,0,0,1,10.18-5C150.66,95.58,152.84,95.32,155.14,95Z"/><path d="M148.74,121.7a7.87,7.87,0,0,1,7.9-8.17,8.27,8.27,0,0,1,8.23,8,8.9,8.9,0,0,1-8.14,8.57C153.57,130.25,148.32,126.6,148.74,121.7Z"/><path d="M97,130.11a8.29,8.29,0,0,1-7.91-8.5,7.81,7.81,0,0,1,8.16-8.1,7.91,7.91,0,0,1,7.76,8.09A8.33,8.33,0,0,1,97,130.11Z"/></g></g></svg>