<svg xmlns="http://www.w3.org/2000/svg" viewBox="0 0 162.96 203.76"><defs><style>.cls-1{fill:#fff;}</style></defs><g id="Layer_2" data-name="Layer 2"><g id="Layer_1-2" data-name="Layer 1"><path d="M120.51,25.37c-.11,1.32-.22,3.24-.45,5.14A2.41,2.41,0,0,0,121.35,33c2.49,1.67,5,3.27,7.44,5a37.3,37.3,0,0,1,10.77,12.56,62.54,62.54,0,0,1,4.91,11.27A43.27,43.27,0,0,1,146.83,76c-.16,4.88-.25,9.75-.47,14.63a22.34,22.34,0,0,1-.79,3.62c-.23,1-.43,2.11-.68,3.16-.44,1.83.36,3,1.82,4a14.81,14.81,0,0,1,6,16,16.5,16.5,0,0,1-10.17,11.37,12,12,0,0,1-3.4.57,2.55,2.55,0,0,0-2.32,1.63c-2.55,6.6-7.18,11.66-12.2,16.42a45.87,45.87,0,0,1-16.13,9.66c-.91.34-1.87.88-1.73,1.87a2.81,2.81,0,0,0,1.52,1.75c2.59,1.14,5.28,2,7.9,3.13s5.21,2.21,7.78,3.41a93.8,93.8,0,0,1,17.44,10.24,43.81,43.81,0,0,1,5.59,5.22c1.53,1.68,1.26,3.06-.47,4.66a3.37,3.37,0,0,1-4.67-.12,51.41,51.41,0,0,0-10.16-7.78c-3.78-2.15-7.68-4.09-11.55-6.07-1.71-.87-3.48-1.6-5.22-2.41-1.24-.58-1.94-.4-2.59.78A26.38,26.38,0,0,1,98.7,183.68a32.94,32.94,0,0,1-12.34,2.55,28.37,28.37,0,0,1-4.71-.65c-.59-.1-1.16-.3-1.75-.41a26.43,26.43,0,0,1-17.8-11.69c-.48-.73-.87-1.52-1.41-2.21a1.7,1.7,0,0,0-2.34-.46c-4,2-8,3.86-11.91,5.9a60.29,60.29,0,0,0-13.57,9.38c-.38.35-.78.69-1.18,1-2.05,1.62-3.68,1.54-5.25-.26-1.34-1.54-1.25-3.39.59-4.94a87.36,87.36,0,0,1,9.9-7.74,172,172,0,0,1,15.48-8.36c4-1.92,8.19-3.36,12.31-5,1-.38,1.78-.86,1.8-2s-.83-1.54-1.71-1.92c-4.89-2.12-9.74-4.35-13.76-7.9-4.28-3.79-8.49-7.7-11.35-12.76a54.76,54.76,0,0,1-2.49-5.18,3,3,0,0,0-2.29-2c-6.57-1.23-11.46-4.86-13.63-11.14C19,111.3,20.63,104.51,27,100.3c1.78-1.18,2-1.73,1.18-3.73a15.79,15.79,0,0,1-.94-3.44c-.51-3.36-1-6.72-1.32-10.1a33.48,33.48,0,0,1,.87-11,10.34,10.34,0,0,0,.28-1.65,34,34,0,0,1,3-10.66,99.12,99.12,0,0,1,5-9.82A43,43,0,0,1,50.37,34.86c2.69-1.62,5.55-3,8.39-4.34a8.72,8.72,0,0,0,3.68-3.12A29.48,29.48,0,0,1,75.79,16.63c5.43-2.32,11.15-2.4,16.94-2.14,5.41.25,10.27,2.15,15.06,4.39.58.27,1.19.46,1.79.68a2.5,2.5,0,0,0,3-.9c.36-.43.67-.9,1-1.32a3.28,3.28,0,0,1,5.28.12,8.43,8.43,0,0,1,1.36,3.25A33.11,33.11,0,0,1,120.51,25.37Zm19.64,55.91c-.47-8.46-1.58-15.88-4.65-23-3.87-8.93-10.37-15.21-18.84-19.67a2.6,2.6,0,0,0-2.81.15c-1.29.78-2.66,1.45-4,2.15a1.72,1.72,0,0,0-1.14,1.77c.23,2.59-.53,4-3,4.9-2,.75-4.13,1.16-6.15,1.87-5.19,1.83-10.54,1.62-15.78.84a41.77,41.77,0,0,1-10-2.63C69.23,45.77,65,43.5,61.7,39.74c-1.82-2.08-2.05-2.14-4.47-.69l-.52.28C45.82,44.82,39.49,54.08,35.59,65.21A37,37,0,0,0,33.46,76c-.33,7.92-.16,15.73,3.12,23.17,1.27,2.88.15,4.88-2.81,5.8a9,9,0,0,0-6,5.41c-.92,2.31-.23,4.39.91,6.4,1.47,2.58,3.43,4.62,6.56,4.82a17.15,17.15,0,0,0,4.21-.62,1.8,1.8,0,0,1,2.42,1.29c.53,1.59.93,3.23,1.57,4.77a31.89,31.89,0,0,0,3.05,6.46,65,65,0,0,0,6.85,8,38.68,38.68,0,0,0,16,9.46c2.47.78,5,1.46,7.5,2a36.19,36.19,0,0,0,6.37,1c3.23.14,6.47,0,9.71-.08a7.54,7.54,0,0,0,1.77-.23c3.16-.85,6.32-1.67,9.45-2.61a41,41,0,0,0,16-9.05c5.62-5.11,9.81-11.13,11.6-18.63.5-2.11,1.38-2.53,3.24-1.44a5.25,5.25,0,0,0,5.88-.13,17,17,0,0,0,1.51-1,8.43,8.43,0,0,0,3.52-7.4c-.36-4.84-4.68-8.81-9.27-6.8-1.14.49-2-.39-1.63-1.61s.83-2.33,1.17-3.52c.81-2.79,1.61-5.59,2.31-8.41a31.92,31.92,0,0,0,.5-3.55C139.43,86.48,139.84,83.48,140.15,81.28Zm-51.76-60c-3.32-.35-7,.87-10.62,2.3-4.42,1.75-7.66,5-10.31,8.85-1,1.53-1,2.09.35,3.42A24.79,24.79,0,0,0,80.1,42.24c5,1.13,10,2.16,15.16.87a8,8,0,0,0,1.85-1.06,9.05,9.05,0,0,0-1.26-1.61c-1.61-1.32-2.23-3.15-1.48-4.74s2.39-2.15,4.44-1.58a18.26,18.26,0,0,0,7.13.45,8.74,8.74,0,0,0,7-5.78c.36-1.33-.17-2.24-1.51-2.18-3.37.17-6.31-1.08-9.29-2.38A32.06,32.06,0,0,0,88.39,21.3ZM86,178.92a45.39,45.39,0,0,0,7-.72,20.57,20.57,0,0,0,11.35-7.15c2.2-2.75,2-3.47-1.28-4.38A4.87,4.87,0,0,1,99.32,162c0-1.35-.71-1.87-2.09-1.74a93.11,93.11,0,0,1-9.55.78c-3.91,0-7.81-.54-11.71-.86-1.63-.13-2.46.46-2.57,1.92a4.77,4.77,0,0,1-3.93,4.74c-2.07.58-2.42,1.45-1.14,3.15A21.45,21.45,0,0,0,86,178.92Z"/><path class="cls-1" d="M140.15,81.28c-.31,2.2-.72,5.2-1.14,8.2a31.92,31.92,0,0,1-.5,3.55c-.7,2.82-1.5,5.62-2.31,8.41-.34,1.19-.85,2.33-1.17,3.52s.49,2.1,1.63,1.61c4.59-2,8.91,2,9.27,6.8a8.43,8.43,0,0,1-3.52,7.4,17,17,0,0,1-1.51,1,5.25,5.25,0,0,1-5.88.13c-1.86-1.09-2.74-.67-3.24,1.44-1.79,7.5-6,13.52-11.6,18.63a41,41,0,0,1-16,9.05c-3.13.94-6.29,1.76-9.45,2.61a7.54,7.54,0,0,1-1.77.23c-3.24.06-6.48.22-9.71.08a36.19,36.19,0,0,1-6.37-1c-2.53-.56-5-1.24-7.5-2a38.68,38.68,0,0,1-16-9.46,65,65,0,0,1-6.85-8A31.89,31.89,0,0,1,43.41,127c-.64-1.54-1-3.18-1.57-4.77A1.8,1.8,0,0,0,39.42,121a17.15,17.15,0,0,1-4.21.62c-3.13-.2-5.09-2.24-6.56-4.82-1.14-2-1.83-4.09-.91-6.4a9,9,0,0,1,6-5.41c3-.92,4.08-2.92,2.81-5.8C33.3,91.72,33.13,83.91,33.46,76a37,37,0,0,1,2.13-10.78c3.9-11.13,10.23-20.39,21.12-25.88l.52-.28c2.42-1.45,2.65-1.39,4.47.69,3.29,3.76,7.53,6,12.09,7.94a41.77,41.77,0,0,0,10,2.63c5.24.78,10.59,1,15.78-.84,2-.71,4.15-1.12,6.15-1.87,2.44-.91,3.2-2.31,3-4.9a1.72,1.72,0,0,1,1.14-1.77c1.34-.7,2.71-1.37,4-2.15a2.6,2.6,0,0,1,2.81-.15c8.47,4.46,15,10.74,18.84,19.67C138.57,65.4,139.68,72.82,140.15,81.28ZM86.91,142.2c3.36.67,6.37-.73,9.41-1.76a6,6,0,0,0,2.44-2,2.89,2.89,0,0,0-.28-3.75,3.18,3.18,0,0,0-3.8-1.22c-1.48.5-3,.92-4.48,1.3a15.71,15.71,0,0,1-10.81-1.42c-1.74-.82-3.08-.63-4.26.82a3.29,3.29,0,0,0,0,4.48,6.1,6.1,0,0,0,2.29,1.67C80.46,141.39,83.46,142.92,86.91,142.2Zm23.48-45.48c-3.86.07-6.75,3.28-6.67,7.4.07,3.69,3.27,7,6.66,7,3.84-.06,6.93-3.55,6.87-7.74A7.15,7.15,0,0,0,110.39,96.72Zm-53.75,7c0,3.83,3.31,7.41,6.86,7.39s6.65-3.46,6.67-7.07c0-4-2.89-7.38-6.44-7.39A7.17,7.17,0,0,0,56.64,103.77Zm64-14.29a6.86,6.86,0,0,0-.76-1.82,6.61,6.61,0,0,0-4-2.43,27.55,27.55,0,0,0-10.12-.13,9.52,9.52,0,0,0-4.8,2.26c-.86.76-1.6,1.75-1.18,3,.7,2,2.73,3.92,5.37,2.58a11,11,0,0,1,10.33-.11C117.63,93.84,120.41,92,120.59,89.48ZM63.41,84.56l0,.18a15.69,15.69,0,0,0-1.68,0C59.37,85,57,85.2,55,86.5c-2.46,1.54-2.73,4.42-.49,6.18,1.35,1.07,2.67.55,4-.06a10.78,10.78,0,0,1,9.68,0,3.34,3.34,0,0,0,4.43-1A3.29,3.29,0,0,0,72.2,87a8,8,0,0,0-3.11-1.66A53.84,53.84,0,0,0,63.41,84.56Zm23.4,42.73c1.74-.47,3.56-.89,5.33-1.48a3.61,3.61,0,0,0,2.29-4.44,3.14,3.14,0,0,0-4.09-2.16,12.22,12.22,0,0,1-7.4-.23c-1.47-.51-2.94.34-3.85,1.94-.75,1.32-.58,2.35.57,3.56C81.58,126.5,84.26,126.49,86.81,127.29Z"/><path class="cls-1" d="M88.39,21.3a32.06,32.06,0,0,1,13.75,2.93c3,1.3,5.92,2.55,9.29,2.38,1.34-.06,1.87.85,1.51,2.18a8.74,8.74,0,0,1-7,5.78,18.26,18.26,0,0,1-7.13-.45c-2-.57-3.72.07-4.44,1.58s-.13,3.42,1.48,4.74a9.05,9.05,0,0,1,1.26,1.61,8,8,0,0,1-1.85,1.06c-5.13,1.29-10.21.26-15.16-.87a24.79,24.79,0,0,1-12.29-6.37c-1.34-1.33-1.39-1.89-.35-3.42,2.65-3.86,5.89-7.1,10.31-8.85C81.37,22.17,85.07,21,88.39,21.3Z"/><path class="cls-1" d="M86,178.92A21.45,21.45,0,0,1,68.33,170c-1.28-1.7-.93-2.57,1.14-3.15a4.77,4.77,0,0,0,3.93-4.74c.11-1.46.94-2.05,2.57-1.92,3.9.32,7.8.82,11.71.86a93.11,93.11,0,0,0,9.55-.78c1.38-.13,2,.39,2.09,1.74a4.87,4.87,0,0,0,3.74,4.68c3.31.91,3.48,1.63,1.28,4.38A20.57,20.57,0,0,1,93,178.2,45.39,45.39,0,0,1,86,178.92Z"/><path d="M86.91,142.2c-3.45.72-6.45-.81-9.52-1.89a6.1,6.1,0,0,1-2.29-1.67,3.29,3.29,0,0,1,0-4.48c1.18-1.45,2.52-1.64,4.26-.82a15.71,15.71,0,0,0,10.81,1.42c1.5-.38,3-.8,4.48-1.3a3.18,3.18,0,0,1,3.8,1.22,2.89,2.89,0,0,1,.28,3.75,6,6,0,0,1-2.44,2C93.28,141.47,90.27,142.87,86.91,142.2Z"/><path d="M110.39,96.72a7.15,7.15,0,0,1,6.86,6.66c.06,4.19-3,7.68-6.87,7.74-3.39,0-6.59-3.31-6.66-7C103.64,100,106.53,96.79,110.39,96.72Z"/><path d="M56.64,103.77a7.17,7.17,0,0,1,7.09-7.07c3.55,0,6.47,3.37,6.44,7.39,0,3.61-3.27,7-6.67,7.07S56.62,107.6,56.64,103.77Z"/><path d="M120.59,89.48c-.18,2.54-3,4.36-5.17,3.3a11,11,0,0,0-10.33.11c-2.64,1.34-4.67-.55-5.37-2.58-.42-1.2.32-2.19,1.18-3a9.52,9.52,0,0,1,4.8-2.26,27.55,27.55,0,0,1,10.12.13,6.61,6.61,0,0,1,4,2.43A6.86,6.86,0,0,1,120.59,89.48Z"/><path d="M63.41,84.56a53.84,53.84,0,0,1,5.68.77A8,8,0,0,1,72.2,87a3.29,3.29,0,0,1,.41,4.64,3.34,3.34,0,0,1-4.43,1,10.78,10.78,0,0,0-9.68,0c-1.37.61-2.69,1.13-4,.06-2.24-1.76-2-4.64.49-6.18C57,85.2,59.37,85,61.71,84.75a15.69,15.69,0,0,1,1.68,0Z"/><path d="M86.81,127.29c-2.55-.8-5.23-.79-7.15-2.81-1.15-1.21-1.32-2.24-.57-3.56.91-1.6,2.38-2.45,3.85-1.94a12.22,12.22,0,0,0,7.4.23,3.14,3.14,0,0,1,4.09,2.16,3.61,3.61,0,0,1-2.29,4.44C90.37,126.4,88.55,126.82,86.81,127.29Z"/></g></g></svg>