<svg xmlns="http://www.w3.org/2000/svg" viewBox="0 0 262.8 287.76"><defs><style>.cls-1{fill:#fff;}</style></defs><g id="Layer_2" data-name="Layer 2"><g id="Layer_1-2" data-name="Layer 1"><path d="M187.28,213v15.6a2.57,2.57,0,0,0,2,2.91c.74.29,1.51.51,2.27.77l14,4.7a156.24,156.24,0,0,1,20.55,8.87,135.46,135.46,0,0,1,20.56,12.49,46.44,46.44,0,0,1,4.07,3.15c2.16,2,1.69,4.54-1,5.91a3.1,3.1,0,0,1-3.37-.48c-1.1-.73-2.16-1.52-3.21-2.31a128.15,128.15,0,0,0-21-12.7c-4.23-2.07-8.5-4.06-12.83-5.91-3.41-1.45-6.9-2.7-10.4-3.91-1.72-.6-2.6-.12-3.46,1.46a47.49,47.49,0,0,1-16.2,16.86,59.48,59.48,0,0,1-13.72,6.74c-4,1.35-8.09,2.33-12.21,3.29-8.06,1.88-16.15,1.16-24.24,1.1a16,16,0,0,1-2.71-.46c-1.8-.34-3.61-.66-5.4-1-1.13-.24-2.24-.55-3.35-.86-.46-.12-.9-.34-1.36-.46a60.83,60.83,0,0,1-22.93-11.27,45.45,45.45,0,0,1-11.76-13.31c-1.07-1.88-1.83-2-3.81-1.12-1.82.83-3.68,1.55-5.54,2.27a147,147,0,0,0-22.91,11.16c-5.12,3.1-10,6.64-14.91,10-2.22,1.52-3.45,1.67-5,.36a3.38,3.38,0,0,1,0-5.34c1.9-1.64,4-3.09,6-4.57a129.77,129.77,0,0,1,19.53-11.65c5.51-2.71,11.14-5.21,16.81-7.57,3.56-1.48,7.29-2.53,10.95-3.77,2.53-.85,5.07-1.66,7.59-2.55a2.56,2.56,0,0,0,1.74-2.79c-.06-9.72-.08-19.44,0-29.16a9.28,9.28,0,0,0-1.69-5.6,65,65,0,0,1-8.32-17.2c-1.4-4.41-2.8-8.81-4.13-13.23-.37-1.26-.43-2.6-.72-3.89-.37-1.66-1.22-2.34-2.89-2.21-4.84.38-8.69-1.72-12.05-4.88a27,27,0,0,1-7.41-24.75c1.16-5.84,4.33-10.71,10-13.43a8.26,8.26,0,0,0,1.44-.85,1.71,1.71,0,0,0,.56-2.22,40.26,40.26,0,0,1-2.63-9.79c-.21-2.35-.79-4.66-1-7a33.29,33.29,0,0,1,.21-5.73A38.18,38.18,0,0,1,67.21,76c1.28-2.63.89-5.64.85-8.51,0-3.07-.3-6.16-.18-9.23a19.41,19.41,0,0,1,4.53-11.14,31.44,31.44,0,0,1,10-8.76.84.84,0,0,1,.21-.11c3.52-.94,5.58-3.54,7.69-6.29A36.55,36.55,0,0,1,103.79,21.3a57.83,57.83,0,0,1,10.41-4.16,32.39,32.39,0,0,1,12-1.2,61.52,61.52,0,0,1,14.26,3.48,95.41,95.41,0,0,0,10.24,3.31,28.11,28.11,0,0,0,11.07.72c2.64-.41,5.22-1.2,7.86-1.57,3.83-.53,7.66-.73,11.5.46,5.45,1.69,9.59,5.12,13.27,9.29,1.4,1.59,2.83,3.16,4.37,4.6,2.08,1.94,4.47,2.87,7.37,1.91a12.55,12.55,0,0,1,3-.57,3.59,3.59,0,0,1,3.75,4.49c-.71,2.65-1.66,5.24-2.42,7.88a15.57,15.57,0,0,0-.68,3.86,37.4,37.4,0,0,1-.82,8.68,15.1,15.1,0,0,0-.19,8.3,19.27,19.27,0,0,0,1.68,3.56,31.18,31.18,0,0,1,3.79,20,97.75,97.75,0,0,1-3.08,15.24c-.28,1-.75,1.85-1,2.8a1.65,1.65,0,0,0,1.25,2.29,16.68,16.68,0,0,1,9.93,8.49,23.08,23.08,0,0,1,3,14.28c-1.06,7.73-4.05,14.49-11,18.8a14,14,0,0,1-9.08,2.49c-1.79-.2-2.34.23-2.82,2-.53,2-.88,4.06-1.47,6-1.32,4.43-2.65,8.86-4.15,13.23a65.46,65.46,0,0,1-7.69,14.59,5.76,5.76,0,0,0-.83,2.93c-.08,5.15,0,10.31,0,15.47Zm29.63-77.66a14.8,14.8,0,0,0-3.13-10.74c-2.62-3.28-7-4.68-10.89-2.35a11,11,0,0,1-1.63.76c-1.79.71-2.58.14-2.71-1.83-.16-2.27-.32-4.54-.59-6.8-.18-1.54-.53-3.07-.85-4.59-.72-3.52-1.36-7-2.25-10.52-.6-2.35-1.57-4.61-2.36-6.91-1.64-4.78-4.08-9.19-6.34-13.69-1.25-2.48-2.86-3.64-5.62-2.77a.24.24,0,0,1-.12,0c-4.65-.18-9.35.1-13.81-1.72-2.69-1.1-5.45-2-8.21-2.91A55.18,55.18,0,0,0,150.21,69c-6.47-1-12.83.19-19.08,1.82-4.78,1.24-9.47,2.8-14.21,4.22a9.32,9.32,0,0,1-1,.22c-1.73.31-3.48.52-5.18.94-4.62,1.15-8.85,0-12.92-2.06a1.77,1.77,0,0,0-2.36.29,5.33,5.33,0,0,0-.86,1.14c-2.15,4-4.47,7.85-6.35,11.94a94.78,94.78,0,0,0-4.13,11.22c-.92,3-1.26,6.1-2.13,9.08-1.23,4.2-1.31,8.51-1.59,12.82-.12,1.89-1.11,2.47-2.78,1.61a35.8,35.8,0,0,0-4.43-2.1,6,6,0,0,0-3-.28,8.69,8.69,0,0,0-5.31,3.26,15.59,15.59,0,0,0-3.26,12,23.16,23.16,0,0,0,2.91,8.69,14,14,0,0,0,8,6.43,5.1,5.1,0,0,0,4-.29c1.11-.55,2.21-1.12,3.35-1.61a1.62,1.62,0,0,1,2.37,1.07,11,11,0,0,1,.24,1.17c.7,3.11,1.35,6.23,2.14,9.32s1.67,6,2.56,9c.74,2.44,1.42,4.91,2.34,7.29a68.1,68.1,0,0,0,6,12.24,56.61,56.61,0,0,0,11.86,13.58,47.47,47.47,0,0,0,24.6,10.6c4.17.39,8.39.1,12.59.21,3.78.09,7.36-1.06,10.9-2a44.85,44.85,0,0,0,9.62-4.2c8.9-5,15.38-12.39,20.36-21.16a78.41,78.41,0,0,0,4.24-9.1,56,56,0,0,0,2.4-7.25c.81-3.13,1.39-6.31,2.07-9.46.07-.31.21-.61.28-.92.34-1.39.65-2.79,1-4.18a40.12,40.12,0,0,1,1.29-4.47c.55-1.38,1.44-1.55,2.69-.79.27.17.53.36.79.55a8.48,8.48,0,0,0,10.38-.31A16.27,16.27,0,0,0,216.91,135.33Zm-36.42,84.76h0c0-4.52,0-9,0-13.56a2,2,0,0,0-.73-1.45c-.23-.17-1,.19-1.36.49-1.63,1.28-3.19,2.65-4.83,3.92a44.2,44.2,0,0,1-11.21,6.38c-3.34,1.28-6.83,2.17-10.26,3.23a5.35,5.35,0,0,1-1.06.19c-3.42.28-6.84.69-10.28.77-2.86.07-5.73-.36-8.6-.38a41.05,41.05,0,0,1-12-2.26,41.76,41.76,0,0,1-11.81-5.71c-2.53-1.8-4.89-3.84-7.36-5.73-.42-.31-1.18-.65-1.53-.47s-.62,1-.63,1.48c-.06,2.36,0,4.72,0,7.08l0,19c0,1.77-.5,3.36-2.23,4a38.55,38.55,0,0,1-6.08,1.78c-3,.61-3.31,1.25-1.58,3.75,6.13,8.85,14.69,14.41,24.7,17.91,2.44.85,5,1.5,7.45,2.15,1.69.44,3.42.75,5.15,1,1,.17,2.09.07,3.1.29a46,46,0,0,0,16.21.32c2.05-.29,4.13-.42,6.18-.71a30.65,30.65,0,0,0,3.26-.73c1-.23,1.93-.49,2.89-.78a63.66,63.66,0,0,0,6.95-2.18,86.89,86.89,0,0,0,9.42-4.68,41.07,41.07,0,0,0,14.34-13.88,1.58,1.58,0,0,0-.79-2.61,20.28,20.28,0,0,0-3.63-1.19c-2.53-.55-3.75-1.92-3.75-4.49Q180.49,226.56,180.49,220.09ZM178.22,68.9c5.45.39,10.43-1.56,14.86-5a27.58,27.58,0,0,0,7.28-8.82c1.24-2.28,2.32-4.65,3.33-7a1.52,1.52,0,0,0-1.2-2.27,18.82,18.82,0,0,1-9.82-5.41c-2.4-2.45-4.64-5.07-7.09-7.47a14.47,14.47,0,0,0-11-4.26,44.85,44.85,0,0,0-9.09,1.52,26.35,26.35,0,0,1-14.07-.07c-.92-.27-1.88-.37-2.82-.59s-1.69-.42-2.52-.7C143.53,28,141,27,138.4,26.23s-5-1.33-7.45-2.17a23.37,23.37,0,0,0-13.58-.36c-2.31.58-4.53,1.5-6.78,2.31A34.51,34.51,0,0,0,96.06,36.06a18.54,18.54,0,0,0-4.31,8.44,17.34,17.34,0,0,0,0,7.21,31.71,31.71,0,0,0,5.87,13.37,10.13,10.13,0,0,0,7.78,4.12c5.21.31,10-1.29,14.9-2.58,2.69-.71,5.33-1.63,8-2.45.3-.09.64-.07,1-.14l3.27-.75c1.43-.31,2.86-.67,4.31-.88s2.87-.25,4.31-.37c6.56-.53,13-.1,19.23,2.27,3.31,1.26,6.59,2.56,10,3.56A28.72,28.72,0,0,0,178.22,68.9ZM83.84,49.57l.3-.07a6.29,6.29,0,0,0,0-1.44c-.13-.53-.31-1.29-.69-1.46a1.8,1.8,0,0,0-1.51.53c-1.43,1.5-2.84,3-4.14,4.65a11.23,11.23,0,0,0-2.48,7.46c0,1,0,2,0,3a65.45,65.45,0,0,1,.19,8.62,30.16,30.16,0,0,1-2,8.56c-1.72,4.08-3.1,8.12-2.75,12.6.22,2.9.34,5.81.68,8.7a48.7,48.7,0,0,0,1.16,5.72c.11.46.56.84.85,1.26.4-.33,1-.58,1.17-1,.51-1.63.88-3.31,1.29-5,.23-.93.35-1.89.64-2.8.81-2.5,1.6-5,2.55-7.45,1.4-3.61,2.73-7.26,4.47-10.7,1.9-3.77,4.19-7.35,6.41-11a3,3,0,0,0,0-3.54,45.58,45.58,0,0,1-2.64-5.22,59.62,59.62,0,0,1-2.09-5.84C84.64,53.37,84.28,51.46,83.84,49.57ZM201.66,69.62c0-.93.28-2.15-.89-2.45-.54-.14-1.37.56-2,1-1.84,1.31-3.6,2.75-5.48,4-1.34.91-1.66,1.86-.91,3.32,1.84,3.58,3.86,7.1,5.42,10.8s2.77,7.73,4,11.64c.69,2.2,1.07,4.5,1.67,6.73a1.67,1.67,0,0,0,.94.86c.13.06.68-.42.74-.72a74.6,74.6,0,0,0,1.61-8.46c.3-3.25.15-6.54.18-9.82a16.81,16.81,0,0,0-2.63-8.48C202.84,75.43,201.38,72.81,201.66,69.62Z"/><path class="cls-1" d="M216.91,135.33a16.27,16.27,0,0,1-6.37,14.21,8.48,8.48,0,0,1-10.38.31c-.26-.19-.52-.38-.79-.55-1.25-.76-2.14-.59-2.69.79a40.12,40.12,0,0,0-1.29,4.47c-.36,1.39-.67,2.79-1,4.18-.07.31-.21.61-.28.92-.68,3.15-1.26,6.33-2.07,9.46a56,56,0,0,1-2.4,7.25,78.41,78.41,0,0,1-4.24,9.1c-5,8.77-11.46,16.19-20.36,21.16a44.85,44.85,0,0,1-9.62,4.2c-3.54,1-7.12,2.13-10.9,2-4.2-.11-8.42.18-12.59-.21a47.47,47.47,0,0,1-24.6-10.6,56.61,56.61,0,0,1-11.86-13.58,68.1,68.1,0,0,1-6-12.24c-.92-2.38-1.6-4.85-2.34-7.29-.89-3-1.78-6-2.56-9s-1.44-6.21-2.14-9.32a11,11,0,0,0-.24-1.17,1.62,1.62,0,0,0-2.37-1.07c-1.14.49-2.24,1.06-3.35,1.61a5.1,5.1,0,0,1-4,.29,14,14,0,0,1-8-6.43,23.16,23.16,0,0,1-2.91-8.69,15.59,15.59,0,0,1,3.26-12,8.69,8.69,0,0,1,5.31-3.26,6,6,0,0,1,3,.28,35.8,35.8,0,0,1,4.43,2.1c1.67.86,2.66.28,2.78-1.61.28-4.31.36-8.62,1.59-12.82.87-3,1.21-6.12,2.13-9.08A94.78,94.78,0,0,1,88.2,87.54c1.88-4.09,4.2-8,6.35-11.94a5.33,5.33,0,0,1,.86-1.14,1.77,1.77,0,0,1,2.36-.29c4.07,2,8.3,3.21,12.92,2.06,1.7-.42,3.45-.63,5.18-.94a9.32,9.32,0,0,0,1-.22c4.74-1.42,9.43-3,14.21-4.22,6.25-1.63,12.61-2.78,19.08-1.82a55.18,55.18,0,0,1,8.19,2.23c2.76.87,5.52,1.81,8.21,2.91,4.46,1.82,9.16,1.54,13.81,1.72a.24.24,0,0,0,.12,0c2.76-.87,4.37.29,5.62,2.77,2.26,4.5,4.7,8.91,6.34,13.69.79,2.3,1.76,4.56,2.36,6.91.89,3.47,1.53,7,2.25,10.52.32,1.52.67,3,.85,4.59.27,2.26.43,4.53.59,6.8.13,2,.92,2.54,2.71,1.83a11,11,0,0,0,1.63-.76c3.87-2.33,8.27-.93,10.89,2.35A14.8,14.8,0,0,1,216.91,135.33Zm-78.34,2.38c-.19-6.44.2-13.52-2-20.41-1.49-4.59-3.68-8.58-7.66-11.41a20.94,20.94,0,0,0-12.08-4.35c-5-.06-10-.43-14.81,1.47-2,.81-4.16,1.36-6.2,2.16A4.17,4.17,0,0,0,93,108.5c-.18,1.35.76,2.3,1.76,3.09a3.13,3.13,0,0,0,3.17.3c3.61-1.13,7.19-2.4,10.88-3.23a20.55,20.55,0,0,1,11.44.79,14.18,14.18,0,0,1,7.28,5.16c2.65,3.77,3.46,8.23,3.82,12.6a159,159,0,0,1,0,16.19c0,1.78-.52,3.55-.72,5.33-.31,2.81-.62,5.63-.8,8.45a3.41,3.41,0,0,0,2,3.2c4.18,2.47,8.67,2.13,13.17,1.44a9.75,9.75,0,0,0,3.2-1.31,3.52,3.52,0,0,0-2.57-6.5c-.66.14-1.28.49-1.93.64a26.28,26.28,0,0,1-4.06.81c-1.6.12-2.47-1.07-2.18-2.67a15.34,15.34,0,0,0,.34-1.77C138,146.79,138.27,142.56,138.57,137.71Zm1.91,46.51c4.65-.38,9.86-1.45,14.36-4.68a22.24,22.24,0,0,0,4.14-3.72c1-1.24.52-3.13-.76-4.31s-2.47-1.33-4.08-.21c-.72.51-1.42,1-2.12,1.56a20,20,0,0,1-8.42,3.87,18.23,18.23,0,0,1-15-3.53c-.88-.69-1.75-1.41-2.68-2-1.56-1-2.64-.89-4,.39-1.91,1.84-2,3.16-.18,5.13a8.26,8.26,0,0,0,.93.94A27.65,27.65,0,0,0,140.48,184.22Zm26-82.81c-3.9,0-7.81,0-11.34,1.9a39.41,39.41,0,0,0-6.15,4.06c-1.5,1.22-1.38,2.68-.18,4.12,1.51,1.8,3.1,2.1,5,.66a21,21,0,0,1,7.49-3.36,19.2,19.2,0,0,1,10.88.3c.78.26,1.63.34,2.44.55,1,.27,2.08.54,3.1.87,1.55.52,3.07,1.14,4.63,1.63,1.31.41,2.22-.38,3-1.26s1.41-1.84.86-3a5.16,5.16,0,0,0-2.84-2.78,29.9,29.9,0,0,0-2.77-1.14,79.91,79.91,0,0,0-8-2.13A47.54,47.54,0,0,0,166.51,101.41ZM102,127.34c0,4.51,3.8,8.49,8.06,8.46,4,0,8.22-4.52,8.18-8.62s-3.92-7.89-8.38-7.89A7.75,7.75,0,0,0,102,127.34Zm75.43,0c.49-4.25-3.64-8.23-7.61-8.1-4.65.14-8.49,3.55-8.51,7.94s4.08,8.54,8.28,8.58S177.38,131.86,177.42,127.38Z"/><path class="cls-1" d="M180.49,220.09q0,6.47,0,12.95c0,2.57,1.22,3.94,3.75,4.49a20.28,20.28,0,0,1,3.63,1.19,1.58,1.58,0,0,1,.79,2.61,41.07,41.07,0,0,1-14.34,13.88,86.89,86.89,0,0,1-9.42,4.68,63.66,63.66,0,0,1-6.95,2.18c-1,.29-1.92.55-2.89.78a30.65,30.65,0,0,1-3.26.73c-2.05.29-4.13.42-6.18.71a46,46,0,0,1-16.21-.32c-1-.22-2.08-.12-3.1-.29-1.73-.29-3.46-.6-5.15-1-2.5-.65-5-1.3-7.45-2.15-10-3.5-18.57-9.06-24.7-17.91-1.73-2.5-1.38-3.14,1.58-3.75a38.55,38.55,0,0,0,6.08-1.78c1.73-.67,2.24-2.26,2.23-4l0-19c0-2.36,0-4.72,0-7.08,0-.52.26-1.3.63-1.48s1.11.16,1.53.47c2.47,1.89,4.83,3.93,7.36,5.73a41.76,41.76,0,0,0,11.81,5.71,41.05,41.05,0,0,0,12,2.26c2.87,0,5.74.45,8.6.38,3.44-.08,6.86-.49,10.28-.77a5.35,5.35,0,0,0,1.06-.19c3.43-1.06,6.92-1.95,10.26-3.23a44.2,44.2,0,0,0,11.21-6.38c1.64-1.27,3.2-2.64,4.83-3.92.39-.3,1.13-.66,1.36-.49a2,2,0,0,1,.73,1.45c.05,4.52,0,9,0,13.56Z"/><path class="cls-1" d="M178.22,68.9a28.72,28.72,0,0,1-7.81-1c-3.43-1-6.71-2.3-10-3.56-6.2-2.37-12.67-2.8-19.23-2.27-1.44.12-2.88.17-4.31.37s-2.88.57-4.31.88l-3.27.75c-.31.07-.65,0-1,.14-2.66.82-5.3,1.74-8,2.45-4.88,1.29-9.69,2.89-14.9,2.58a10.13,10.13,0,0,1-7.78-4.12,31.71,31.71,0,0,1-5.87-13.37,17.34,17.34,0,0,1,0-7.21,18.54,18.54,0,0,1,4.31-8.44,34.51,34.51,0,0,1,14.53-10c2.25-.81,4.47-1.73,6.78-2.31a23.37,23.37,0,0,1,13.58.36c2.45.84,5,1.39,7.45,2.17s5.13,1.74,7.7,2.59c.83.28,1.67.5,2.52.7s1.9.32,2.82.59a26.35,26.35,0,0,0,14.07.07,44.85,44.85,0,0,1,9.09-1.52,14.47,14.47,0,0,1,11,4.26c2.45,2.4,4.69,5,7.09,7.47a18.82,18.82,0,0,0,9.82,5.41,1.52,1.52,0,0,1,1.2,2.27c-1,2.39-2.09,4.76-3.33,7a27.58,27.58,0,0,1-7.28,8.82C188.65,67.34,183.67,69.29,178.22,68.9Z"/><path class="cls-1" d="M83.84,49.57c.44,1.89.8,3.8,1.36,5.66a59.62,59.62,0,0,0,2.09,5.84,45.58,45.58,0,0,0,2.64,5.22,3,3,0,0,1,0,3.54c-2.22,3.6-4.51,7.18-6.41,11-1.74,3.44-3.07,7.09-4.47,10.7-.95,2.44-1.74,5-2.55,7.45-.29.91-.41,1.87-.64,2.8-.41,1.66-.78,3.34-1.29,5-.14.42-.77.67-1.17,1-.29-.42-.74-.8-.85-1.26a48.7,48.7,0,0,1-1.16-5.72c-.34-2.89-.46-5.8-.68-8.7-.35-4.48,1-8.52,2.75-12.6a30.16,30.16,0,0,0,2-8.56,65.45,65.45,0,0,0-.19-8.62c0-1,0-2,0-3a11.23,11.23,0,0,1,2.48-7.46c1.3-1.62,2.71-3.15,4.14-4.65a1.8,1.8,0,0,1,1.51-.53c.38.17.56.93.69,1.46a6.29,6.29,0,0,1,0,1.44Z"/><path class="cls-1" d="M201.66,69.62c-.28,3.19,1.18,5.81,2.67,8.43A16.81,16.81,0,0,1,207,86.53c0,3.28.12,6.57-.18,9.82a74.6,74.6,0,0,1-1.61,8.46c-.06.3-.61.78-.74.72a1.67,1.67,0,0,1-.94-.86c-.6-2.23-1-4.53-1.67-6.73-1.23-3.91-2.42-7.86-4-11.64s-3.58-7.22-5.42-10.8c-.75-1.46-.43-2.41.91-3.32,1.88-1.26,3.64-2.7,5.48-4,.61-.44,1.44-1.14,2-1C201.94,67.47,201.63,68.69,201.66,69.62Z"/><path d="M138.57,137.71c-.3,4.85-.55,9.08-.84,13.31a15.34,15.34,0,0,1-.34,1.77c-.29,1.6.58,2.79,2.18,2.67a26.28,26.28,0,0,0,4.06-.81c.65-.15,1.27-.5,1.93-.64a3.52,3.52,0,0,1,2.57,6.5,9.75,9.75,0,0,1-3.2,1.31c-4.5.69-9,1-13.17-1.44a3.41,3.41,0,0,1-2-3.2c.18-2.82.49-5.64.8-8.45.2-1.78.68-3.55.72-5.33a159,159,0,0,0,0-16.19c-.36-4.37-1.17-8.83-3.82-12.6a14.18,14.18,0,0,0-7.28-5.16,20.55,20.55,0,0,0-11.44-.79c-3.69.83-7.27,2.1-10.88,3.23a3.13,3.13,0,0,1-3.17-.3c-1-.79-1.94-1.74-1.76-3.09a4.17,4.17,0,0,1,2.8-3.33c2-.8,4.17-1.35,6.2-2.16,4.81-1.9,9.82-1.53,14.81-1.47a20.94,20.94,0,0,1,12.08,4.35c4,2.83,6.17,6.82,7.66,11.41C138.77,124.19,138.38,131.27,138.57,137.71Z"/><path d="M140.48,184.22a27.65,27.65,0,0,1-17.81-6.58,8.26,8.26,0,0,1-.93-.94c-1.78-2-1.73-3.29.18-5.13,1.33-1.28,2.41-1.42,4-.39.93.61,1.8,1.33,2.68,2a18.23,18.23,0,0,0,15,3.53,20,20,0,0,0,8.42-3.87c.7-.53,1.4-1.05,2.12-1.56,1.61-1.12,2.7-1.06,4.08.21s1.79,3.07.76,4.31a22.24,22.24,0,0,1-4.14,3.72C150.34,182.77,145.13,183.84,140.48,184.22Z"/><path d="M166.51,101.41a47.54,47.54,0,0,1,6.22.38,79.91,79.91,0,0,1,8,2.13,29.9,29.9,0,0,1,2.77,1.14,5.16,5.16,0,0,1,2.84,2.78c.55,1.2-.1,2.18-.86,3s-1.71,1.67-3,1.26c-1.56-.49-3.08-1.11-4.63-1.63-1-.33-2.06-.6-3.1-.87-.81-.21-1.66-.29-2.44-.55a19.2,19.2,0,0,0-10.88-.3,21,21,0,0,0-7.49,3.36c-1.94,1.44-3.53,1.14-5-.66-1.2-1.44-1.32-2.9.18-4.12a39.41,39.41,0,0,1,6.15-4.06C158.7,101.37,162.61,101.38,166.51,101.41Z"/><path d="M102,127.34a7.75,7.75,0,0,1,7.86-8c4.46,0,8.34,3.66,8.38,7.89s-4.23,8.61-8.18,8.62C105.79,135.83,102,131.85,102,127.34Z"/><path d="M177.42,127.38c0,4.48-3.74,8.45-7.84,8.42s-8.3-4.28-8.28-8.58,3.86-7.8,8.51-7.94C173.78,119.15,177.91,123.13,177.42,127.38Z"/></g></g></svg>